<svg width="935" height="813" viewBox="0 0 935 813" fill="none" xmlns="http://www.w3.org/2000/svg">
<path d="M790.851 623.109L800.792 633.312C792.028 641.945 779.732 647.308 766.39 647.308C740.491 647.308 717.077 625.595 717.077 598.126C717.077 572.226 739.052 548.812 766.39 548.812C777.77 548.812 788.366 552.737 796.606 559.277L790.72 572.619C784.441 566.602 775.808 563.07 766.39 563.07C748.209 563.07 733.297 579.028 733.297 598.126C733.297 616.308 747.162 633.05 766.39 633.05C775.808 633.05 784.572 629.257 790.851 623.109Z" fill="#252525"/>
<path d="M685.691 550.121V646.001H670.779V550.121H685.691Z" fill="#252525"/>
<path d="M640.678 562.548H616.218V646.001H601.306V562.548H576.846L578.154 550.121H639.37L640.678 562.548Z" fill="#252525"/>
<path d="M521.088 646.785C506.307 646.785 494.142 637.367 486.294 626.38L498.59 617.877C504.999 626.772 510.362 633.574 521.48 633.574C532.075 633.574 535.738 625.202 535.738 621.278C535.738 602.704 494.273 602.05 494.273 575.235C494.273 558.492 507.484 549.074 523.181 549.074C532.468 549.074 542.147 553.129 548.557 559.015L538.746 569.349C534.168 565.163 528.413 562.024 523.181 562.024C515.987 562.024 509.185 567.648 509.185 575.235C509.185 590.278 550.65 596.687 550.65 619.578C550.65 636.059 534.953 646.785 521.088 646.785Z" fill="#252525"/>
<path d="M458.801 550.121V646.001H443.89V550.121H458.801Z" fill="#252525"/>
<path d="M375.179 632.266H413.767L412.458 646.001H360.268V550.121H375.179V632.266Z" fill="#252525"/>
<path d="M282.213 647.57C254.874 647.57 232.769 624.287 232.769 598.257C232.769 570.657 256.183 548.943 282.213 548.943C309.681 548.943 331.526 572.227 331.526 598.257C331.526 625.726 308.112 647.57 282.213 647.57ZM247.68 598.257C247.68 617.616 264.031 634.882 282.213 634.882C301.833 634.882 316.614 615.915 316.614 598.257C316.614 579.028 300.394 561.631 282.213 561.631C262.984 561.631 247.68 579.944 247.68 598.257Z" fill="#252525"/>
<path d="M189.123 550.121H204.035V646.001H189.123V614.346H154.983V646.001H140.071V550.121H154.983V600.612H189.123V550.121Z" fill="#252525"/>
<path d="M756.764 744.623C771.545 744.623 786.456 744.493 801.237 744.493V783.08C792.212 794.591 778.085 802.308 762.258 802.308C736.228 802.308 712.944 780.725 712.944 753.126C712.944 727.096 734.789 703.812 762.258 703.812C773.768 703.812 784.102 707.606 792.473 714.277L786.456 727.88C780.309 721.733 771.675 718.07 762.258 718.07C744.076 718.07 727.856 733.897 727.856 753.126C727.856 771.569 743.029 788.705 762.258 788.705C771.283 788.705 780.047 785.173 786.718 778.763V758.096H755.587L756.764 744.623Z" fill="#252525"/>
<path d="M684.201 803.093L629.918 744.493V801H615.137V703.682L669.421 763.59V705.12H684.201V803.093Z" fill="#252525"/>
<path d="M579.827 705.121V801.001H564.915V705.121H579.827Z" fill="#252525"/>
<path d="M498.18 765.16L490.201 778.502V801.001H475.289V705.121H490.201V754.042L518.454 705.121H533.366L506.29 751.426L534.805 801.001H518.978L498.18 765.16Z" fill="#252525"/>
<path d="M397.235 802.57C369.897 802.57 347.791 779.287 347.791 753.257C347.791 725.657 371.205 703.943 397.235 703.943C424.704 703.943 446.548 727.227 446.548 753.257C446.548 780.726 423.134 802.57 397.235 802.57ZM362.703 753.257C362.703 772.616 379.053 789.882 397.235 789.882C416.856 789.882 431.637 770.915 431.637 753.257C431.637 734.028 415.417 716.631 397.235 716.631C378.007 716.631 362.703 734.944 362.703 753.257Z" fill="#252525"/>
<path d="M273.66 802.57C246.322 802.57 224.216 779.287 224.216 753.257C224.216 725.657 247.63 703.943 273.66 703.943C301.129 703.943 322.973 727.227 322.973 753.257C322.973 780.726 299.559 802.57 273.66 802.57ZM239.128 753.257C239.128 772.616 255.478 789.882 273.66 789.882C293.281 789.882 308.061 770.915 308.061 753.257C308.061 734.028 291.842 716.631 273.66 716.631C254.432 716.631 239.128 734.944 239.128 753.257Z" fill="#252525"/>
<path d="M200.185 769.608C200.185 786.612 186.189 801.001 169.054 801.001H131.774V705.121H164.999C177.294 705.121 188.413 715.324 188.413 728.404C188.413 733.506 186.712 738.215 183.965 742.139C193.252 747.109 200.185 757.574 200.185 769.608ZM146.686 787.789H168.138C175.725 787.789 184.227 781.903 184.227 769.608C184.227 757.574 176.117 751.818 168.138 751.818H146.686V787.789ZM164.999 718.332H146.686V739.261H163.56C168.923 739.261 174.678 736.514 174.678 728.404C174.678 723.303 170.231 718.332 164.999 718.332Z" fill="#252525"/>
<path fill-rule="evenodd" clip-rule="evenodd" d="M353.207 11.7996C232.367 11.7996 134.324 110.759 134.324 231.666C134.324 352.572 232.366 451.494 353.207 451.494C364.369 451.494 375.284 450.688 385.916 449.082C389.138 448.595 392.144 450.812 392.631 454.034C393.117 457.256 390.9 460.262 387.678 460.749C376.442 462.447 364.937 463.293 353.207 463.293C225.845 463.293 122.623 359.124 122.524 231.848C122.524 231.787 122.524 231.727 122.524 231.666C122.524 231.606 122.524 231.545 122.524 231.485C122.623 104.21 225.844 0 353.207 0C480.598 0 583.89 103.292 583.89 230.683V232.571C583.89 314.355 541.336 386.204 477.171 427.164C474.424 428.917 470.777 428.112 469.023 425.366C467.27 422.619 468.075 418.972 470.822 417.218C531.733 378.335 572.091 310.161 572.091 232.571V230.683C572.091 109.809 474.081 11.7996 353.207 11.7996Z" fill="#6B5004"/>
<path fill-rule="evenodd" clip-rule="evenodd" d="M579.571 11.8387C568.691 11.8387 557.964 12.6432 547.505 14.1756C544.281 14.648 541.285 12.4174 540.812 9.19346C540.34 5.9695 542.57 2.97303 545.794 2.50065C556.811 0.886487 568.11 0.0390625 579.571 0.0390625C706.961 0.0390625 810.254 103.331 810.254 230.722V232.61C810.254 360.001 706.961 463.293 579.571 463.293C452.209 463.293 348.986 359.123 348.888 231.848C348.888 231.787 348.888 231.727 348.888 231.666C348.888 231.605 348.888 231.545 348.888 231.484C348.952 147.482 393.944 73.5478 461.08 32.9842C463.869 31.2992 467.496 32.194 469.181 34.9829C470.866 37.7717 469.971 41.3985 467.182 43.0836C403.39 81.627 360.687 151.886 360.687 231.666C360.687 352.572 458.729 451.493 579.571 451.493C700.445 451.493 798.454 353.484 798.454 232.61V230.722C798.454 109.848 700.445 11.8387 579.571 11.8387Z" fill="#6B5004"/>
<path fill-rule="evenodd" clip-rule="evenodd" d="M461.954 149.473L575.684 298.744H358.886L461.954 149.473ZM462.455 170.914L382.889 286.148H550.253L462.455 170.914Z" fill="#6B5004"/>
</svg>
