<?xml version="1.0" encoding="utf-8"?>
<!-- Generator: Adobe Illustrator 26.5.1, SVG Export Plug-In . SVG Version: 6.00 Build 0)  -->
<svg version="1.1" id="Слой_1" xmlns="http://www.w3.org/2000/svg" xmlns:xlink="http://www.w3.org/1999/xlink" x="0px" y="0px"
	 viewBox="0 0 1885.20435 1644.79382" style="enable-background:new 0 0 1885.20435 1644.79382;" xml:space="preserve">
<style type="text/css">
	.st0{fill:#FFFFFF;}
	.st1{fill:#FFE9CA;}
	.st2{fill:#FFC25F;}
	.st3{fill:#282828;}
</style>
<g>
	<g>
		<path class="st0" d="M1503.7876,415.91821l29.87061-16.28851c1.69727-0.92529,2.32227-3.05127,1.39746-4.74854
			c-0.92578-1.69727-3.05176-2.32129-4.74902-1.39697l-32.42554,17.6817c-12.5-9.96729-24.94324-19.70251-37.3335-29.22852
			l11.72974-26.52057c0.78125-1.76758-0.01758-3.83447-1.78516-4.61621c-1.76855-0.78174-3.83496,0.01758-4.61719,1.78516
			l-11.04517,24.97302c-48.95166-37.42053-97.03271-71.41327-144.18188-102.15326
			c2.73999-6.84314,4.77551-13.96545,5.97925-21.25549c6.07349-36.78131-10.2948-71.05688-44.90796-94.03784
			c-38.07739-25.2818-74.33264-29.7442-102.96667-13.56628c3.66394-5.13885,9.89075-11.15424,20.41833-15.88593
			c1.76318-0.79248,2.55029-2.86426,1.75781-4.62695c-0.79199-1.7627-2.86377-2.5498-4.62695-1.75781
			c-10.39563,4.67212-17.1604,10.49414-21.56189,15.92072c-0.34021-5.47198,0.43347-11.91388,4.07507-17.98322
			c0.99463-1.65771,0.45752-3.80762-1.2002-4.80176c-1.65869-0.99512-3.80762-0.45703-4.80176,1.2002
			c-4.80908,8.01477-5.59912,16.38208-4.98535,23.23773c-11.65015-19.06854-17.07251-28.65533-44.91467-44.36731
			c-21.25073-11.99219-41.32544-19.50604-72.34253-15.97827c-80.12518-37.40448-136.07538-33.56934-166.12561-10.78253
			C-16.50014-172.68182-345.96387,904.68042,582.36957,1475.18787c30.6109,18.81189,61.44055,35.7063,92.38251,50.79224
			c0.08203,0.04004,0.16412,0.08008,0.24615,0.12012c2.91046,1.41809,5.82178,2.81982,8.73419,4.20581
			c0.08722,0.0415,0.17456,0.08301,0.26178,0.12439c2.93634,1.39636,5.8736,2.77698,8.81171,4.14062
			c0.02051,0.00952,0.04108,0.01892,0.06158,0.02844c32.87622,15.25671,65.85602,28.47778,98.81641,39.75757
			c0.03882,0.01331,0.0777,0.02661,0.11658,0.03992c2.96478,1.01416,5.92926,2.01282,8.89362,2.99561
			c0.03687,0.01233,0.07367,0.02441,0.11053,0.03662c32.96436,10.92542,65.896,19.91858,98.67151,27.07178
			c0.00739,0.00159,0.01477,0.00317,0.02209,0.00476c2.93634,0.64087,5.87128,1.26636,8.80505,1.87769
			c0.08167,0.01709,0.16327,0.03418,0.24493,0.05115c2.91315,0.60632,5.82495,1.19812,8.73535,1.77551
			c0.06128,0.01221,0.12256,0.02429,0.18378,0.03638c32.65027,6.47046,65.12061,11.1272,97.28827,14.06335
			c0.08942,0.00818,0.17883,0.0166,0.26825,0.02478c2.82678,0.25708,5.65106,0.50061,8.47308,0.73132
			c0.13605,0.01111,0.27209,0.02234,0.40814,0.03333c2.81879,0.22925,5.63519,0.44556,8.44904,0.64844
			c0.09631,0.00684,0.19263,0.01367,0.28906,0.02051c29.15173,2.09253,58.03284,2.77759,86.55078,2.12378
			c0.01099-0.00024,0.02209-0.00037,0.03308-0.00061c2.78601-0.06396,5.56824-0.14148,8.34717-0.23096
			c0.12-0.00391,0.24011-0.00745,0.36011-0.01147c2.73267-0.08899,5.46191-0.19055,8.18762-0.30408
			c0.13586-0.00562,0.27185-0.01135,0.40784-0.01709c2.74304-0.11548,5.48242-0.2428,8.21826-0.38306
			c0.0741-0.00366,0.14807-0.00781,0.22217-0.01147C1751.0083,1593.72986,2177.1394,958.47833,1503.7876,415.91821z"/>
		<path class="st0" d="M728.71191,1584.86316c-16.42969-4.88477-33.02344-10.35742-49.32031-16.26758
			c-1.81592-0.66016-3.82471,0.28027-4.48389,2.09668c-0.65869,1.81738,0.28027,3.82422,2.09717,4.4834
			c16.42627,5.95703,33.15137,11.47363,49.71191,16.39648c0.33301,0.09961,0.66846,0.14648,0.99902,0.14648
			c1.50879,0,2.90137-0.9834,3.35352-2.50391C731.62012,1587.36218,730.56445,1585.41394,728.71191,1584.86316z"/>
		<path class="st0" d="M625.02686,1546.88074c-16.37354-7.15137-32.87354-14.9248-49.0415-23.10547
			c-1.72412-0.87012-3.83105-0.18164-4.70312,1.54297c-0.87256,1.72461-0.18213,3.83008,1.54297,4.70312
			c16.28564,8.24023,32.90625,16.07031,49.3999,23.27344c0.45605,0.19922,0.93115,0.29395,1.39893,0.29395
			c1.34912,0,2.63477-0.78516,3.20947-2.10059C627.60693,1549.71667,626.79834,1547.65417,625.02686,1546.88074z"/>
		<path class="st0" d="M527.22803,1497.35632c-146.04492-84.45508-231.6626-183.32617-232.51074-184.31445
			c-1.25781-1.46875-3.46777-1.6377-4.93506-0.37988s-1.6377,3.4668-0.37988,4.93457
			c0.85498,0.99805,87.18359,100.73242,234.32178,185.82031c0.55176,0.31836,1.1543,0.4707,1.74854,0.4707
			c1.20898,0,2.38477-0.62695,3.0332-1.74902C529.47363,1500.4657,528.90137,1498.3241,527.22803,1497.35632z"/>
		<path class="st0" d="M904.23096,34.5672c0.29199-0.07471,29.72803-7.46191,68.77734-7.08545
			c35.84863,0.34082,87.41895,7.4751,129.52002,39.52295c0.63379,0.48193,1.37842,0.71533,2.11768,0.71484
			c1.05518,0,2.09863-0.47559,2.7876-1.37988c1.17041-1.53809,0.87305-3.73438-0.66504-4.90527
			c-43.68555-33.25391-96.92194-40.62598-133.88867-40.9541c-39.93799-0.375-69.15674,6.99121-70.38135,7.30469
			c-1.87207,0.47852-3.00195,2.38428-2.52393,4.25684C900.45215,33.91388,902.35498,35.04474,904.23096,34.5672z"/>
	</g>
	<g>
		<g>
			<path class="st1" d="M1497.95813,411.22696c-140.69495-112.19562-274.50317-196.2657-399.95947-256.12524
				c42.59058,54.11067,31.59521,134.21121,9.3457,193.81485c15.33105-1.79303,31.88013,13.17871,32.30225,28.75839
				c0.52917,19.53439-15.03467,38.42114-30.45093,48.8447c-7.12231,4.81528-15.49292,7.50467-23.70239,9.83731
				c-7.52063,2.13712-17.21619,4.09821-24.06091-0.8544c-0.43018,0.60718-0.85583,1.23932-1.28674,1.83966l-19.68115,244.88702
				L890.1521,670.14893l11.66467-145.14044c-24.4953-2.48297-46.44116-11.75537-63.50848-25.10327
				c-57.58978-45.03922-29.11005-140.64062-12.14685-183.88608l14.01758-52.06647
				c10.01807-52.4463,40.53693-156.01465,125.92694-164.17386C7.04937-245.65575-377.15076,885.51459,582.36957,1475.18774
				C1403.41956,1979.7644,2381.16772,1115.5354,1497.95813,411.22696z M363.10483,786.60431
				c-7.6189,9.86908-19.76501,17.13525-38.5209,19.24377c-45.73785,5.14026-47.75461-75.60114-47.52548-96.26318
				c-1.46231-27.31592-2.98828-68.80481,1.01636-71.98682c4.91684-3.90778,8.81445,4.83368,11.8266,18.18988
				c-0.71707-27.19159-0.34262-51.90814,3.19357-54.71863c9.2988-7.38971,15.92664,18.3562,20.36353,48.10016
				c-0.90286-31.09357-0.60938-60.10962,3.41187-63.30536c10.73438-8.53113,18.22388,23.20288,23.08145,57.93457
				c-0.48141-24.48883,0.0983-45.55646,3.3468-48.13849c18.14508-14.41949,26.1283,97.32941,27.48508,118.77002
				c1.87582-0.46558,3.07648-0.55951,3.07648-0.55951s16.71744-59.42224,30.36493-52.9093
				C411.97699,692.33905,388.18134,762.62,363.10483,786.60431z M1009.74323,1298.40515
				c-0.16193-0.83276-0.34912-1.65173-0.54865-2.46387c-8.58026,0.46655-17.19019,0.07776-25.75671-0.67517
				c-30.90277,2.17041-62.28253-0.2085-93.04144-1.6582c-23.68213-1.11609-47.34186-1.24329-71.04279-1.44531
				c-11.27582-0.09619-22.64777,0.11707-33.90186-0.63757c-10.29492-0.68994-20.28979-5.20349-30.47986-5.11279
				c-8.48413,0.07556-11.60107-8.19067-9.38556-14.34216c-0.03973-1.15723,0.08313-2.32214,0.32965-3.40417
				c0.60645-2.66125,2.5683-4.80054,4.79608-6.23718c1.19855-0.7627,2.4917-1.17542,3.88031-1.23828
				c1.38715-0.31079,2.77429-0.24866,4.16217,0.18652c1.35754,0.32275,2.54083,0.94543,3.54852,1.8678
				c0.29419,0.19019,0.56598,0.40271,0.8255,0.62634c26.71881-3.35364,53.52081-3.95251,80.44208-3.06018
				c50.15594,1.66296,100.20203,4.75171,150.38831,5.97266c1.05609,0.02563,2.11218,0.0437,3.16827,0.06677
				c-0.04626-0.11267-0.0954-0.22363-0.14093-0.33679c-3.98438-9.8269-4.44556-24.66736,7.81763-28.92212
				c5.71637-1.98315,11.84613,0.37878,15.11993,5.37012c1.27875,1.94946,1.80499,4.08044,2.24664,6.30969
				c0.02966,0.15222,0.98669,6.54553,0.51831,5.03149c1.35608,4.38586,3.73999,8.15381,6.01196,11.91919
				c2.66443-0.70447,5.32886-1.43237,7.99548-2.23181c10.61731-3.1842,21.32129-6.08362,32.42212-6.91125
				c12.00525-0.8949,24.08411,0.75537,36.11096,0.39722c8.68079-0.25842,11.97046,8.88245,9.01184,15.70398
				c-4.03796,9.30823-15.18579,9.9248-23.89758,10.60352c-12.46704,0.97119-24.96448,3.2998-37.30139,5.30981
				c-7.73242,1.25952-15.39978,2.84766-23.10754,4.21021C1031.95215,1306.12158,1012.27826,1311.4248,1009.74323,1298.40515z
				 M1111.87451,1525.6936c-3.12122,5.85718-11.86487,8.92175-16.67041,2.96838c-6.39001-7.91638-5.86523-16.96973-7.93762-26.41711
				c-3.2218-14.68298-6.6438-29.11438-8.34827-44.08472c-0.49731-4.3656,2.99976-8.2915,7.00586-9.78699
				c4.3429-1.98462,9.79041-1.20215,12.81982,4.14148c5.39539,9.51782,7.73523,19.88867,9.55249,30.57202
				c1.52527,8.9696,2.11804,21.15222,7.4563,28.77039C1119.79626,1517.6272,1116.77112,1523.22278,1111.87451,1525.6936z
				 M1171.61121,1544.46753c-0.91077,5.8446-7.81116,8.3446-12.83789,7.28882
				c-15.17773-3.18665-11.37769-20.87561-15.27026-31.93384c-2.72302-7.73669-5.95203-15.07544-8.00208-23.06116
				c-1.95813-7.62683-3.47253-15.36316-5.29053-23.02368c-3.74805-15.7915-4.45276-31.97253-11.43115-46.85608
				c-7.08252-15.10474-13.18774-28.34497-5.9303-44.67017c2.84009-6.38977,11.98267-6.28821,16.39062-2.11218
				c0.07019,0.06641,0.12866,0.13513,0.19739,0.20166c0.58411,0.46619,1.15149,1.02466,1.69287,1.68823
				c8.73718,10.70581,10.9209,23.41748,12.5177,36.79578c1.53894,12.89575,3.87524,23.88525,9.00537,35.90344
				c6.38342,14.95618,7.74963,30.35913,11.81213,45.94238C1168.37646,1515.63721,1174.07825,1528.63269,1171.61121,1544.46753z
				 M1474.79712,634.14429c-5.07593,28.7652-19.78809,91.72723-66.39709,81.78656
				c-11.23315-2.39624-20.30566-5.40765-27.55872-9.13037c-0.00513,0.0506-0.00793,0.0824-0.00793,0.0824
				c-1.42334-0.71417-2.81702-1.53027-4.18176-2.44037c-7.02612-4.32263-12.01672-9.49683-15.37939-15.64252
				c-29.95227-42.15326-38.85132-132.15216-26.94519-141.92877c15.15686-5.58258,25.9679,54.12946,27.81042,65.04675
				c1.04309-5.22839,2.16931-10.68671,3.34827-16.38275c7.23645-42.33978,25.50159-136.48569,42.44519-120.2569
				c5.71997,5.47852-2.08105,67.25433-8.3634,110.56122c8.51453-15.45172,23.56873-9.05011,26.40881,7.58997
				c4.1665-5.8609,11.54028-9.76648,20.70398-2.03119c5.9281,5.00427,6.7998,12.11646,5.87537,18.06628
				C1461.73291,604.3764,1478.7865,611.53558,1474.79712,634.14429z"/>
		</g>
		<g>
			<path class="st2" d="M900.1087,546.26294c-23.18048,10.57062-18.01569,27.664-21.55621,56.69812l16.94366,0.69464
				L900.1087,546.26294z"/>
		</g>
		<g>
			<path class="st2" d="M1068.5481,540.97308c-0.17566-5.61908-5.62817-8.96918-15.87964-10.59381l-6.38574,79.45612l16.7218,0.6853
				C1063.00452,610.52069,1069.052,557.09998,1068.5481,540.97308z"/>
		</g>
		<g>
			<path class="st3" d="M1040.46875,685.72931c-0.09424,0-0.18896-0.00342-0.28418-0.01123L889.87207,673.638
				c-0.92529-0.07422-1.7832-0.51318-2.38477-1.22021c-0.60205-0.70654-0.89795-1.62354-0.82373-2.54883l11.66455-145.14062
				c0.15479-1.92676,1.85645-3.35938,3.76904-3.2085c1.92676,0.15479,3.36328,1.84229,3.2085,3.76904l-11.38428,141.65186
				l143.33496,11.51953l19.71484-245.30615c0.15479-1.92725,1.8501-3.36426,3.76904-3.2085
				c1.92676,0.15479,3.36328,1.84229,3.2085,3.76904l-19.99512,248.79492
				C1043.80664,684.34113,1042.27441,685.72931,1040.46875,685.72931z"/>
		</g>
		<g>
			<path class="st3" d="M914.88037,529.18146c-3.00928,0-6.00781-0.10107-9.00098-0.30371
				c-25.56592-1.73486-50.32861-11.04443-69.72705-26.21533c-25.62598-20.0415-37.55762-51.61035-35.46338-93.83057
				c1.71631-34.58887,12.56543-69.07031,21.36475-91.90576c0.69531-1.80371,2.72168-2.70166,4.52441-2.00781
				c1.80371,0.69531,2.70264,2.7207,2.00781,4.52441c-8.61523,22.35742-19.23535,56.07422-20.90527,89.73633
				c-1.9751,39.81445,9.05518,69.41162,32.78418,87.96973c32.14795,25.14111,87.89258,39.37451,147.93018,3.92334
				c1.66504-0.98291,3.81152-0.43066,4.79346,1.23389c0.98291,1.66455,0.43018,3.81055-1.23389,4.79346
				C967.35547,521.62482,940.88867,529.18146,914.88037,529.18146z"/>
		</g>
		<g>
			<path class="st2" d="M980.79639,387.93097c-2.33447,0-4.68896-0.1958-7.05664-0.60352
				c-14.76514-2.54199-25.96533-12.72217-31.53662-28.66504c-8.91943-25.52295-2.19189-59.86719,15.64844-79.8877
				c8.70996-9.77393,23.83887-20.3584,46.45752-15.27051c15.875,3.56934,27.66455,11.8252,34.09473,23.87549
				c5.62891,10.54883,7.10645,23.67725,4.27197,37.96533C1036.46729,356.64386,1010.28564,387.93097,980.79639,387.93097z
				 M993.0376,269.21124c-14.0083,0-23.83301,7.34521-29.95996,14.22021c-16.01074,17.96729-22.27734,49.99854-14.2666,72.92139
				c3.32129,9.50391,10.54834,21.39551,26.11621,24.07617c12.7876,2.20215,26.38232-3.00049,38.28174-14.64697
				c11.11816-10.88135,19.56689-26.50684,22.60059-41.79883c5.49609-27.70654-6.854-47.7627-33.03613-53.6499
				C999.32715,269.5589,996.08301,269.21124,993.0376,269.21124z"/>
		</g>
		<g>
			<path class="st2" d="M857.58643,361.09991c-2.33984,0-4.6665-0.19678-6.9668-0.59277
				c-14.76514-2.54199-25.96533-12.72217-31.53711-28.66504c-8.91943-25.52246-2.19189-59.8667,15.64893-79.88721
				c8.70898-9.77295,23.83789-20.3584,46.45703-15.27051c18.07764,4.06445,30.65283,14.03906,36.36621,28.84521
				c7.37842,19.12061,2.42285,45.29541-12.62354,66.68311c-1.1123,1.58057-3.2959,1.96094-4.87646,0.84912
				c-1.58105-1.1123-1.96094-3.2959-0.84912-4.87646c13.73975-19.52979,18.37891-43.13428,11.81885-60.13574
				c-4.90186-12.70215-15.45654-20.95752-31.37109-24.53613c-19.30029-4.33789-32.23779,4.72852-39.6958,13.09814
				c-16.01123,17.96777-22.27783,49.99805-14.2666,72.9209c3.32129,9.50391,10.54834,21.39551,26.11621,24.07617
				c8.69482,1.49658,17.55273-0.33057,26.32812-5.43018c1.67236-0.97168,3.81445-0.40283,4.78467,1.26709
				c0.97168,1.67139,0.40381,3.81348-1.26709,4.78467C873.83545,358.77374,865.6333,361.09991,857.58643,361.09991z"/>
		</g>
		<g>
			<path class="st3" d="M1038.10742,261.19904c-0.94678,0-1.89014-0.38184-2.58057-1.13428
				c-17.35938-18.9292-48.47852-13.229-48.79102-13.16943c-1.89746,0.36084-3.73242-0.88086-4.0957-2.7793
				c-0.36377-1.89844,0.88086-3.73242,2.7793-4.0957c1.43164-0.2749,35.29492-6.46387,55.2666,15.31299
				c1.30664,1.4248,1.21045,3.63867-0.21387,4.94531C1039.80029,260.89484,1038.95264,261.19904,1038.10742,261.19904z"/>
		</g>
		<g>
			<path class="st3" d="M915.34619,235.9549c-0.94678,0-1.89014-0.38184-2.58057-1.13428
				c-17.30566-18.87061-48.48242-13.22852-48.79541-13.16846c-1.89502,0.36035-3.72949-0.88721-4.09082-2.78467
				c-0.36084-1.89746,0.88135-3.72803,2.77832-4.09131c1.43311-0.27295,35.29639-6.4624,55.26709,15.31299
				c1.30664,1.4248,1.21045,3.63867-0.21387,4.94531C917.03906,235.6507,916.19141,235.9549,915.34619,235.9549z"/>
		</g>
		<g>
			<path class="st3" d="M906.88037,414.52325c-1.23779,0-2.43701-0.65771-3.07324-1.81982
				c-0.92773-1.6958-0.30566-3.82275,1.38965-4.75098c0.84619-0.46338,21.03125-11.23047,46.25439-0.52979
				c1.7793,0.75488,2.60986,2.80957,1.85498,4.58936c-0.75537,1.77881-2.81152,2.60791-4.58936,1.85498
				c-22.13477-9.39307-39.98193,0.12842-40.15869,0.22607C908.0249,414.38507,907.44824,414.52325,906.88037,414.52325z"/>
		</g>
		<g>
			<path class="st3" d="M928.03662,429.11554c-4.23535,0-7.23242-1.73877-7.41748-1.84863
				c-1.66162-0.98779-2.20801-3.13525-1.2207-4.79688c0.98145-1.65137,3.10791-2.20117,4.76514-1.23926
				c0.20801,0.11523,3.71777,1.99268,7.79736-0.08691c1.72314-0.87744,3.8291-0.19238,4.70801,1.5293
				c0.87744,1.72266,0.19287,3.83008-1.5293,4.70801C932.59326,428.67853,930.15918,429.11554,928.03662,429.11554z"/>
		</g>
		<g>
			<path class="st3" d="M1076.97021,442.21515c-7.09814,0-13.50244-1.99707-18.88184-5.99414
				c-5.00732-3.72119-8.13379-10.01855-9.0415-18.21143c-0.21289-1.92139,1.17188-3.65137,3.09277-3.86426
				c1.92041-0.2124,3.65137,1.17139,3.86426,3.09277c0.48047,4.33154,1.95605,10.16602,6.25928,13.36426
				c11.7666,8.74316,27.29541,3.07764,35.50391-1.07568c21.625-10.94336,39.14453-33.9834,39.05469-51.36035
				c-0.05029-9.66602-5.2666-17.12646-15.50439-22.17432c-23.47217-11.57324-40.35693,2.57715-48.33203,12.0415
				c-1.24561,1.47754-3.45459,1.6665-4.93213,0.42139c-1.47803-1.24561-1.6665-3.45361-0.42139-4.93213
				c15.81543-18.77051,36.51074-23.80371,56.78125-13.80908c15.96045,7.86963,19.36377,19.79639,19.4082,28.4165
				c0.1167,22.43555-21.71729,46.92627-42.89355,57.64209C1092.44238,440.06622,1084.33301,442.21515,1076.97021,442.21515z"/>
		</g>
		<g>
			<path class="st3" d="M1271.71924,160.11218c-40.72852-27.04198-79.37439-30.2706-108.83655-9.89226
				c-0.83704-1.45692-1.69507-2.90805-2.58557-4.34869c-13.48706-21.81754-17.65015-31.61005-47.38416-48.38964
				c-21.25073-11.9922-41.32544-19.50607-72.34253-15.9783C880.79492,6.91608,817.13556,96.30254,863.3161,172.97342
				c19.57904,32.50591,138.72131,57.90892,197.14374,46.11304c-2.06445,35.95114-8.68555,95.11722-2.9613,115.90326
				c3.74658,13.60266,9.08264,24.11151,15.92737,31.52835c0.35925-1.73666,1.22742-3.46826,2.75342-5.06323
				c5.69531-5.95306,13.86426-8.73532,22.44897-9.02917c1.11023-0.49442,2.20972-0.909,3.27808-1.21078
				c8.78552-2.4801,22.31738,1.7175,29.2655,9.58215c9.3573-10.61148,18.27087-25.07724,25.95337-41.45529
				c21.55396,18.26254,42.92444,23.38541,60.09656,23.38541c8.78418-0.00073,16.47095-1.33875,22.52271-2.94131
				c38.63074-10.2262,70.24548-45.44147,76.88281-85.63577C1322.70068,217.36871,1306.3324,183.09315,1271.71924,160.11218z"/>
		</g>
		<g>
			<path class="st3" d="M908.23438,368.9754c-12.04443,0.00049-19.71436-3.98096-23.72998-6.91406
				c-5.30176-3.87256-8.55713-8.94922-8.93164-13.92822c-0.45605-6.06836,1.44482-11.35547,5.49756-15.28906
				c4.76514-4.625,12.12012-6.90869,19.68018-6.11719c2.03516,0.21338,3.93066-0.98779,4.60303-2.92285l19.06396-54.83203
				c0.63428-1.82617,2.62939-2.7915,4.45508-2.15625c1.82568,0.63477,2.7915,2.62939,2.15625,4.45508l-19.06348,54.83203
				c-1.74463,5.02197-6.65625,8.14062-11.94678,7.58594c-5.43555-0.57031-10.82812,1.02979-14.07275,4.17773
				c-2.55078,2.47656-3.69238,5.75391-3.39258,9.7417c0.16748,2.22998,1.85303,5.71289,6.08008,8.80029
				c4.53955,3.31592,14.90576,8.22266,33.3252,3.83252c1.88086-0.4458,3.76807,0.71387,4.21631,2.59326
				c0.44824,1.88037-0.71289,3.76807-2.59326,4.21631C917.8335,368.42072,912.72852,368.97491,908.23438,368.9754z"/>
		</g>
		<g>
			<path class="st2" d="M954.3335,306.79279c-0.24707,0-0.49707-0.02588-0.74854-0.08057l-45.55957-9.92432
				c-1.88867-0.41162-3.08594-2.27637-2.6748-4.16504c0.41113-1.88965,2.27344-3.08594,4.16504-2.6748l45.55957,9.92432
				c1.88867,0.41162,3.08594,2.27637,2.6748,4.16504C957.39307,305.67462,955.94385,306.79279,954.3335,306.79279z"/>
		</g>
		<g>
			<path class="st3" d="M1076.82324,362.61456c-0.7334,0-1.47314-0.22949-2.104-0.70459l-38.71875-29.17383
				c-1.54395-1.16309-1.85254-3.35791-0.68945-4.90186c1.16357-1.54346,3.35889-1.85107,4.90186-0.68896l38.71924,29.17383
				c1.54346,1.16309,1.85205,3.35791,0.68896,4.90186C1078.93311,362.13361,1077.88428,362.61456,1076.82324,362.61456z"/>
		</g>
		<g>
			<path class="st3" d="M1090.86523,418.7464c-0.75879,0-1.52295-0.24561-2.16455-0.75146
				c-1.51807-1.19727-1.77832-3.39795-0.58154-4.91553c1.61963-2.05371,1.22705-3.21631,0.06836-4.42578
				c-3.01953-3.15332-9.29785-3.90234-10.48291-3.0498c-1.1543,1.01904-2.83105,1.15869-4.14209,0.354
				c-1.31152-0.80566-1.93604-2.37988-1.54834-3.86963c2.32568-8.94434,12.21533-25.34863,32.95801-23.42334
				c1.9248,0.17871,3.33984,1.88379,3.16113,3.80859c-0.17822,1.9248-1.87451,3.34521-3.80859,3.16113
				c-13.31396-1.23438-20.13477,6.92773-23.26367,12.74023c4.2627,0.37256,8.87305,2.28564,11.70801,4.96582
				c4.2207,3.99072,4.54492,9.3833,0.84717,14.07275C1092.92529,418.28937,1091.90039,418.7464,1090.86523,418.7464z"/>
		</g>
		<g>
			<path class="st3" d="M871.97461,304.83624c-16.17725,0-25.65625-10.79102-26.12207-11.33398
				c-1.25928-1.4668-1.09033-3.67627,0.37646-4.93506c1.46533-1.25684,3.66943-1.09131,4.92871,0.36865
				c0.48096,0.55078,11.08838,12.36914,28.77344,7.86719c1.87793-0.47607,3.77881,0.65479,4.25537,2.52783
				c0.47705,1.87354-0.65479,3.77881-2.52783,4.25537C878.21094,304.46417,874.97607,304.83624,871.97461,304.83624z"/>
		</g>
		<g>
			<path class="st3" d="M997.49072,332.17804c-16.17529,0-25.65625-10.79053-26.12158-11.3335
				c-1.25928-1.4668-1.09033-3.67627,0.37646-4.93506c1.46436-1.25732,3.66895-1.09082,4.92871,0.36865
				c0.48193,0.55078,11.08789,12.37012,28.77344,7.8667c1.87695-0.47803,3.77881,0.6543,4.25537,2.52783
				c0.47705,1.87354-0.65479,3.77881-2.52783,4.25537C1003.72656,331.80646,1000.49316,332.17804,997.49072,332.17804z"/>
		</g>
		<g>
			<path class="st3" d="M1100.55029,1201.00122l-350.09119,2.02258c0,0-48.0553,130.16577-84.52905,318.60474
				c191.08643,95.37988,386.8728,120.83264,562.68835,95.05066C1183.94739,1406.83252,1127.13403,1231.07495,1100.55029,1201.00122z
				 M1019.15118,1296.96887c-0.33685,0.06641-0.67371,0.09827-1.00623,0.09827c-2.4259,0-4.59155-1.71106-5.07733-4.18103
				l-1.94879-9.89868c-58.45142,4.59802-104.64252,6.22729-140.70496,6.22729c-83.93207,0-113.11658-8.79712-115.01477-9.40063
				c-2.72662-0.86816-4.23303-3.78198-3.3656-6.50867c0.86597-2.72437,3.77472-4.22717,6.49701-3.37061
				c0.75684,0.23523,59.70337,17.59094,250.56647,2.78662l-3.58893-18.22607c-0.55371-2.80762,1.27362-5.53198,4.08264-6.08496
				c2.79742-0.55298,5.53131,1.27441,6.08356,4.08264l3.82025,19.40039c24.9884-2.04028,52.13586-4.61658,81.62683-7.83838
				c2.82349-0.29993,5.40125,1.74426,5.7135,4.58875c0.31079,2.84436-1.74353,5.40259-4.58875,5.71338
				c-29.12878,3.18201-55.98792,5.74817-80.73193,7.79346l1.71967,8.73315
				C1023.78754,1293.69141,1021.96021,1296.41589,1019.15118,1296.96887z M1102.67261,1510.9054
				c-0.33398,0.06506-0.6665,0.09619-0.99463,0.09619c-2.4303,0-4.59875-1.71826-5.0802-4.19336
				c-2.57776-13.25708-10.78931-43.16016-10.8717-43.46008c-0.75903-2.75916,0.86304-5.61157,3.62292-6.36987
				c2.75256-0.75891,5.61072,0.86169,6.36975,3.62158c0.34119,1.24255,8.39807,30.58533,11.05103,44.23071
				C1107.31628,1507.63953,1105.48157,1510.35962,1102.67261,1510.9054z M1158.82104,1536.63757
				c-0.27612,0.04407-0.55225,0.0658-0.8241,0.0658c-2.5011,0-4.70288-1.81506-5.1106-4.36316
				c-8.91272-55.70532-33.61267-137.59167-33.86133-138.41211c-0.82983-2.73889,0.71851-5.63098,3.45667-6.46008
				c2.74109-0.83057,5.6311,0.71777,6.46094,3.4574c0.25,0.8269,25.15381,83.38623,34.17651,139.77673
				C1163.57166,1533.52856,1161.64734,1536.18506,1158.82104,1536.63757z"/>
		</g>
		<g>
			<path class="st2" d="M1448.06238,702.55157c-9.62842,10.79108-22.47498,17.04486-39.66235,13.37927
				c-11.23315-2.39624-20.30566-5.40765-27.55872-9.13037c-0.00513,0.0506-0.00793,0.0824-0.00793,0.0824
				c-1.42334-0.71417-2.81702-1.53027-4.18176-2.44037c-7.02612-4.32263-12.01672-9.49683-15.37939-15.64252
				c-3.03174-4.26703-5.84436-9.03027-8.44446-14.14484c-0.8363,28.6507,4.44556,149.91846,7.76208,221.55475
				c-44.27344-74.39465-130.76294-212.31738-192.37756-263.83154c-72.35254-66.85968-280.05383-60.59106-365.93823-18.00415
				c-99.61292,29.93988-239.17432,366.93079-239.17432,366.93079S440.96341,813.59821,388.01944,747.23407
				c-7.23578,16.42322-15.99026,30.83405-24.91461,39.37024c-7.6189,9.86908-19.76501,17.13525-38.5209,19.24377
				c-8.64676,0.97156-15.72928-1.12982-21.53165-5.31152c0.64191,2.11328,1.38934,4.21716,2.27554,6.30255
				c21.9726,51.71082,145.75122,394.16211,250.18121,394.16211c49.89282,0,92.14075-63.13977,142.62268-130.35803
				c33.76599,137.33545,15.94183,159.35254,36.57715,174.63684c28.01495,20.75061,357.48523-3.72839,383.22754-8.95752
				c24.19104-4.9137,17.28772-33.46814,2.64636-42.7113c9.4491-17.00879,4.80481-65.25488,12.36877-93.69922
				c14.55176-53.81396,28.52954-120.70758,38.823-187.08508c81.47717,165.87976,214.24451,285.48389,290.42542,267.28711
				C1564.50403,1155.67798,1461.23779,752.38147,1448.06238,702.55157z"/>
		</g>
		<g>
			<path class="st3" d="M320.48145,809.58331c-8.59424,0.00049-16.18555-2.93164-22.61816-8.74658
				c-22.58057-20.41064-24.52588-70.47021-24.30615-91.17725c-3.74121-69.96582,0.21436-73.1123,2.33984-74.80176
				c2.7793-2.20801,5.34424-1.78125,6.62354-1.33008c1.28955,0.4541,2.47363,1.2998,3.57764,2.58789
				c-0.06104-33.90967,2.92578-36.28174,4.81934-37.78662c3.44092-2.73389,6.54932-2.11816,8.09521-1.50928
				c3.0957,1.2207,6.77783,4.59717,10.61719,16.82324c0.54102-26.92285,3.35498-29.16162,5.06299-30.51904
				c3.65625-2.90674,6.94434-2.24463,8.57959-1.59131c3.95459,1.58057,8.75684,6.4668,13.69238,26.36426
				c0.98096-12.45459,2.84521-13.93506,4.15576-14.97656c3.59131-2.85498,6.81201-2.08789,8.41357-1.37646
				c5.21387,2.31641,12.02393,10.97168,18.45605,57.73438c2.71191,19.71729,4.49609,40.15479,5.51025,53.72168
				c4.88086-15.10742,14.43066-40.49707,24.72754-45.16553c2.54004-1.15186,5.13574-1.16162,7.50488-0.03174
				c0.9458,0.45117,1.63916,1.30225,1.89062,2.31934c3.75781,15.2124,0.64551,40.45898-8.3252,67.53418
				c-8.81592,26.60596-21.35742,49.48926-33.58545,61.29541c-8.96973,11.48975-22.67334,18.34375-40.7373,20.37451
				C323.44922,809.49738,321.9502,809.58331,320.48145,809.58331z M280.46777,640.33429
				c-0.80859,2.29639-2.87744,13.72607,0.08545,69.06348c0.00391,0.0752,0.00537,0.15039,0.00488,0.22559
				c-0.16992,15.36133,0.91406,66.96191,21.99902,86.02051c6.06348,5.48096,13.14258,7.68164,21.63623,6.72607
				c16.21729-1.82324,28.37646-7.84717,36.14062-17.9043c0.10693-0.13867,0.22461-0.26953,0.35156-0.39062
				c11.32764-10.83447,23.57715-33.29639,31.96777-58.62061c8.11523-24.49219,11.28662-47.12354,8.67188-61.33203
				c-0.06592,0.02539-0.13428,0.0542-0.20605,0.08691c-8.05371,3.65088-18.92773,32.97998-23.89014,50.60938
				c-0.39746,1.41162-1.6333,2.42627-3.09521,2.54102l0,0c0.00098,0-0.98486,0.08936-2.50732,0.46729
				c-1.00732,0.25195-2.07324,0.04004-2.91113-0.57324c-0.8374-0.61328-1.35889-1.56689-1.4248-2.60254
				c-0.67236-10.62988-2.62695-38.18506-6.23535-64.41943c-6.40137-46.54053-13.08789-51.72412-14.36328-52.29102
				c-0.12939-0.05713-0.3667-0.16406-1.03564,0.32178c-0.78906,1.36865-2.93164,8.53027-2.20459,45.46729
				c0.03613,1.85156-1.37598,3.41113-3.22217,3.55762c-1.8374,0.15674-3.48682-1.16943-3.74365-3.00391
				c-6.86328-49.07471-13.83691-55.46191-15.81104-56.25049c-0.18652-0.07471-0.56396-0.22559-1.47852,0.45703
				c-0.97266,1.53516-3.69629,10.36572-2.23926,60.57764c0.05371,1.85156-1.34424,3.42432-3.18896,3.58789
				c-1.84717,0.15771-3.49854-1.13818-3.77148-2.96973c-6.18652-41.47266-12.37402-45.88965-13.55127-46.354
				c-0.09717-0.03857-0.33936-0.1333-0.99268,0.34033c-0.85547,1.47998-3.17432,9.46533-2.05225,52.02344
				c0.04736,1.80029-1.27881,3.34277-3.06592,3.56543c-1.78418,0.21973-3.45166-0.94678-3.84717-2.70312
				C283.69531,644.1756,281.28027,641.06671,280.46777,640.33429z"/>
		</g>
		<g>
			<path class="st3" d="M1417.97363,720.48273c-3.33594,0-6.77246-0.37549-10.30371-1.12891
				c-11.21484-2.39258-20.30273-5.37109-27.75098-9.09717c-0.22461-0.05811-0.44434-0.13965-0.65527-0.24561
				c-1.51172-0.7583-3.02539-1.64014-4.50098-2.62158c-7.35547-4.53564-12.74121-10.00928-16.45996-16.72705
				c-19.17969-27.11182-27.12891-68.06152-29.65918-84.43359c-3.74658-24.2417-5.0874-55.04199,3.4624-62.06299
				c0.30225-0.24805,0.64453-0.44385,1.01123-0.5791c2.69336-0.99219,5.49609-0.71436,8.10938,0.80127
				c9.69043,5.61719,16.77148,30.03613,20.99609,49.46289c3.39258-19.74707,8.7041-47.9668,15.05371-72.41016
				c10.98926-42.30615,18.99414-49.42188,24.05957-51.09375c1.80762-0.59717,5.38184-1.07666,9.01562,2.40332
				c2.31934,2.22168,7.64062,7.32324-5.75684,102.65186c2.86328-1.62305,6.00195-2.21582,9.24414-1.66846
				c6.06152,1.02344,11.14062,5.87939,13.88965,12.91699c2.20508-1.62061,4.6377-2.63574,7.1582-2.95459
				c4.66797-0.59229,9.39844,1.1001,14.05176,5.02734c4.65625,3.93164,7.20508,9.44678,7.41992,15.86914
				c4.55078-0.63965,9.50195,0.52441,13.50586,3.38086c7.39746,5.27686,10.45117,15.0376,8.37891,26.7793
				c-7.12012,40.35742-19.64258,66.82666-37.21777,78.67139C1434.05273,718.12286,1426.33008,720.48273,1417.97363,720.48273z
				 M1381.76074,703.42316c0.23242,0.06348,0.45996,0.15137,0.67969,0.26367c7.01562,3.60107,15.74609,6.48633,26.69043,8.82129
				c10.59473,2.25928,19.74805,0.66064,27.98242-4.88867c15.94043-10.74268,27.45898-35.66797,34.2373-74.08301
				c2.16895-12.29102-2.54688-17.72119-5.55078-19.86426c-3.56055-2.53906-8.20117-3.00195-11.54688-1.14648
				c-1.16699,0.64795-2.60547,0.57422-3.7002-0.19092c-1.0957-0.76514-1.66113-2.08691-1.45508-3.40771
				c0.68359-4.39893,0.42773-10.54688-4.6748-14.85449c-3.0957-2.6123-6.0166-3.76465-8.65723-3.43213
				c-3.35742,0.4248-5.78711,3.20068-6.93652,4.81738c-0.81934,1.15234-2.25098,1.69824-3.63184,1.38379
				c-1.37891-0.31494-2.43262-1.42871-2.6709-2.82324c-1.42285-8.33545-5.97363-12.72705-9.85254-13.38232
				c-3.68848-0.62061-7.24805,1.82666-10.04004,6.89258c-0.81641,1.48193-2.57812,2.1665-4.17871,1.62891
				c-1.60449-0.53809-2.59375-2.146-2.35059-3.82031c13.49707-93.05811,10.21875-105.92334,9.28906-107.64014
				c-1.05762-0.96826-1.58008-0.79736-1.86328-0.70312c-6.95801,2.29688-20.19238,34.87451-34.59473,119.13086
				c-0.00684,0.04004-0.01465,0.07959-0.02246,0.11914c-1.17773,5.68799-2.30176,11.1377-3.34277,16.3584
				c-0.33105,1.65625-1.80859,2.87891-3.48438,2.81494c-1.68848-0.0249-3.11816-1.25195-3.39941-2.91699
				c-4.64746-27.53174-12.93359-57.39795-20.9707-62.05664c-0.66797-0.38721-1.1709-0.47754-1.58887-0.43262
				c-3.21436,4.02539-5.47754,23.36328-0.56543,55.14893c5.12207,33.14014,15.7998,63.64941,28.56445,81.61279
				c0.0791,0.11133,0.15137,0.22705,0.2168,0.34717c3.13184,5.72168,7.75781,10.41309,14.14258,14.34131
				c0.03613,0.02246,0.07227,0.04541,0.1084,0.06934C1379.6377,702.22687,1380.7002,702.86163,1381.76074,703.42316z
				 M1405.35059,477.62238L1405.35059,477.62238L1405.35059,477.62238z"/>
		</g>
		<g>
			<g>
				<path class="st2" d="M472.85498,1380.77917c-1.90967,0-3.47119-1.53418-3.49854-3.44922
					c-0.0293-2.01074-0.02295-4.06934,0.01758-6.12012c0.03857-1.93262,1.65332-3.50293,3.56934-3.42871
					c1.93262,0.03809,3.46826,1.63672,3.42969,3.56934c-0.03955,1.96973-0.04541,3.94727-0.01758,5.87793
					c0.02783,1.93262-1.51611,3.52246-3.44873,3.55078C472.88916,1380.77917,472.87207,1380.77917,472.85498,1380.77917z"/>
			</g>
			<g>
				<path class="st2" d="M474.66895,1351.6698c-0.15039,0-0.30225-0.00879-0.45508-0.0293
					c-1.91699-0.24902-3.26904-2.00488-3.02002-3.92188c0.51172-3.94043,1.13721-8.0166,1.85986-12.11426
					c0.33545-1.9043,2.14844-3.17383,4.0542-2.83984c1.90381,0.33594,3.1748,2.15137,2.83936,4.05469
					c-0.7041,3.99512-1.31348,7.96484-1.81201,11.80176C477.90625,1350.38464,476.40137,1351.6698,474.66895,1351.6698z
					 M481.38965,1317.04968c-0.28369,0-0.57227-0.03516-0.85986-0.10742c-1.87402-0.47363-3.00928-2.37695-2.53613-4.25098
					c0.74707-2.95703,1.55078-5.97559,2.38916-8.97461c0.25244-0.90234,0.49219-1.80664,0.71973-2.71289
					c0.4707-1.87598,2.37158-3.01758,4.24658-2.54199c1.875,0.4707,3.01318,2.37207,2.54248,4.24707
					c-0.24219,0.96582-0.49854,1.92969-0.76758,2.89258c-0.82227,2.94238-1.61084,5.9043-2.34326,8.80469
					C484.37988,1315.99207,482.95459,1317.04968,481.38965,1317.04968z M487.72314,1282.43835
					c-0.03955,0-0.0791-0.00098-0.11865-0.00195c-1.93164-0.06445-3.44629-1.68262-3.38184-3.61426
					c0.03857-1.16797,0.05811-2.33594,0.05859-3.50195c0-2.72656-0.10742-5.48438-0.31982-8.19727
					c-0.15088-1.92773,1.28906-3.6123,3.21631-3.7627c1.91602-0.1377,3.61133,1.28809,3.76221,3.2168
					c0.22656,2.89355,0.34131,5.83496,0.34131,8.74414c-0.00049,1.24512-0.021,2.48926-0.0625,3.7334
					C491.15576,1280.94714,489.60205,1282.43835,487.72314,1282.43835z M483.20117,1247.60144
					c-1.50586,0-2.89648-0.97949-3.35107-2.49512c-1.11719-3.72559-2.45605-7.42773-3.97998-11.00293
					c-0.75781-1.77832,0.06934-3.83398,1.84766-4.5918c1.7749-0.75586,3.83398,0.06836,4.5918,1.84766
					c1.62549,3.81348,3.05371,7.7627,4.24561,11.73535c0.55518,1.85156-0.49561,3.80273-2.34717,4.3584
					C483.87256,1247.55359,483.53418,1247.60144,483.20117,1247.60144z M467.79932,1216.03308
					c-1.09619,0-2.17529-0.5127-2.85791-1.47559c-0.62744-0.88477-1.27051-1.76172-1.92822-2.62988
					c-1.70996-2.26074-3.46729-4.58789-5.27002-6.98242c-1.16309-1.54492-0.85352-3.73926,0.69092-4.90137
					c1.54248-1.16211,3.73877-0.85254,4.90137,0.69043c1.79932,2.39062,3.55322,4.71387,5.2583,6.9668
					c0.70068,0.9248,1.38721,1.8623,2.05762,2.80762c1.11816,1.57617,0.74658,3.76074-0.83008,4.87891
					C469.20654,1215.8241,468.49951,1216.03308,467.79932,1216.03308z M446.63379,1187.7489
					c-1.06982,0-2.12549-0.48828-2.81201-1.41211c-2.35449-3.16797-4.76123-6.41699-7.21631-9.74219
					c-1.14844-1.55469-0.81885-3.74609,0.73633-4.89453c1.55615-1.14746,3.74756-0.81738,4.89453,0.73633
					c2.45117,3.31934,4.854,6.5625,7.20361,9.72461c1.15332,1.55176,0.83008,3.74414-0.72168,4.89746
					C448.09131,1187.52429,447.35938,1187.7489,446.63379,1187.7489z M425.69238,1159.29675
					c-1.08057,0-2.14648-0.49902-2.83154-1.43848c-2.34424-3.2168-4.71924-6.48828-7.12256-9.80859
					c-1.1333-1.56543-0.78271-3.75391,0.78369-4.88672c1.56445-1.13477,3.75342-0.78418,4.88721,0.7832
					c2.39844,3.31445,4.76953,6.57812,7.10889,9.78906c1.13818,1.5625,0.79492,3.75195-0.76758,4.89062
					C427.12842,1159.07898,426.40723,1159.29675,425.69238,1159.29675z M405.02979,1130.64441
					c-1.09277,0-2.16895-0.50977-2.85205-1.4668c-2.32324-3.25684-4.66553-6.55078-7.02295-9.87793
					c-1.11719-1.57715-0.74463-3.76172,0.83252-4.87988c1.57666-1.11523,3.76221-0.74512,4.87939,0.83301
					c2.35254,3.32129,4.69043,6.60938,7.00928,9.8584c1.12256,1.57324,0.75732,3.75977-0.81592,4.88184
					C406.44385,1130.43347,405.7334,1130.64441,405.02979,1130.64441z M384.66309,1101.78601
					c-1.10547,0-2.19336-0.52246-2.87354-1.49805c-2.29639-3.29199-4.60254-6.61133-6.91553-9.95312
					c-1.1001-1.58984-0.70312-3.77051,0.88623-4.87012c1.58984-1.10059,3.771-0.70312,4.86963,0.88672
					c2.30811,3.33496,4.60938,6.64648,6.90088,9.93262c1.10596,1.58496,0.7168,3.7666-0.86865,4.87305
					C386.05225,1101.58191,385.35449,1101.78601,384.66309,1101.78601z M364.62354,1072.70105
					c-1.12012,0-2.22021-0.53613-2.89746-1.53125c-2.26416-3.32812-4.52979-6.67578-6.7959-10.03809
					c-1.08057-1.60352-0.65674-3.77832,0.94629-4.8584c1.60352-1.0791,3.77881-0.65625,4.8584,0.94629
					c2.26025,3.35449,4.52051,6.69336,6.7793,10.0127c1.08691,1.59863,0.67285,3.77539-0.92578,4.8623
					C365.98584,1072.50476,365.30127,1072.70105,364.62354,1072.70105z M344.94971,1043.37c-1.13623,0-2.25-0.55176-2.92334-1.57031
					c-2.22217-3.3623-4.44043-6.73535-6.65234-10.11816c-1.05811-1.61816-0.604-3.78711,1.01367-4.8457
					c1.61768-1.05664,3.78711-0.60254,4.84473,1.01367c2.20605,3.37402,4.41748,6.73828,6.63379,10.09082
					c1.06592,1.6123,0.62256,3.7832-0.98975,4.84961C346.28223,1043.1825,345.61182,1043.37,344.94971,1043.37z
					 M325.70361,1013.77423c-1.15479,0-2.28467-0.57031-2.95264-1.61523c-2.18359-3.41699-4.35742-6.83887-6.51758-10.26172
					c-1.03174-1.63477-0.54248-3.79688,1.09229-4.82812c1.63477-1.0332,3.7959-0.54199,4.82764,1.0918
					c2.15332,3.41309,4.31934,6.82324,6.49609,10.22852c1.04102,1.62891,0.56445,3.79297-1.06445,4.83398
					C327.00146,1013.5965,326.34863,1013.77423,325.70361,1013.77423z M306.92871,983.82599
					c-1.17676,0-2.3252-0.59375-2.98633-1.66992c-2.12207-3.45605-4.22656-6.91016-6.31104-10.36133
					c-0.99951-1.6543-0.46875-3.80566,1.18604-4.80566c1.65527-0.99902,3.80664-0.46875,4.80518,1.18652
					c2.07568,3.43652,4.17236,6.87598,6.28516,10.31836c1.01172,1.64746,0.49609,3.80273-1.15088,4.81348
					C308.18555,983.65802,307.55322,983.82599,306.92871,983.82599z M288.77051,953.534c-1.20361,0-2.375-0.62158-3.02539-1.73584
					c-2.05176-3.51221-4.07861-7.01514-6.07666-10.50732c-0.95996-1.67773-0.37842-3.81592,1.29932-4.77588
					c1.67676-0.96191,3.81592-0.37842,4.77588,1.29932c1.98828,3.47412,4.00439,6.95898,6.04541,10.45361
					c0.9751,1.66895,0.4126,3.8125-1.25684,4.78711C289.97754,953.37921,289.36963,953.534,288.77051,953.534z M271.36279,922.80499
					c-1.2373,0-2.43652-0.65723-3.07275-1.81934c-1.95605-3.57227-3.89893-7.16748-5.77441-10.68604
					c-0.90967-1.70557-0.26367-3.82568,1.44189-4.73535c1.7041-0.90967,3.82617-0.26367,4.73486,1.44238
					c1.86328,3.49561,3.79395,7.06738,5.7373,10.6167c0.92822,1.69531,0.30664,3.82275-1.38867,4.75098
					C272.50732,922.66632,271.93115,922.80499,271.36279,922.80499z M254.94041,891.5379
					c-1.28271,0-2.51807-0.70801-3.13184-1.93311c-1.84229-3.67822-3.64746-7.35059-5.36475-10.91504
					c-0.83887-1.7417-0.10693-3.8335,1.63428-4.67236c1.74219-0.83789,3.83398-0.10742,4.67236,1.63428
					c1.70166,3.53223,3.49025,7.17188,5.31691,10.81738c0.86572,1.72803,0.1665,3.83105-1.56152,4.69727
					C256.00244,891.41827,255.46776,891.5379,254.94041,891.5379z M239.88914,859.59161c-1.34814,0-2.63281-0.7832-3.20801-2.09717
					c-1.66504-3.80225-3.26807-7.57715-4.76318-11.21875c-0.73389-1.78857,0.12012-3.83301,1.90869-4.56738
					c1.78809-0.73438,3.8335,0.12061,4.56689,1.90869c1.47461,3.5918,3.05615,7.31641,4.69971,11.06982
					c0.77539,1.77051-0.03125,3.83447-1.80176,4.60986C240.83446,859.49689,240.35789,859.59161,239.88914,859.59161z
					 M226.9243,826.75079c-1.45166,0-2.80859-0.91016-3.30859-2.35938c-0.89941-2.60596-1.75732-5.19629-2.5498-7.69873
					c-0.41357-1.3042-0.82178-2.61084-1.22461-3.91992c-0.56836-1.84717,0.46826-3.80566,2.31543-4.37451
					c1.84961-0.56934,3.80713,0.46777,4.375,2.31592c0.39697,1.28955,0.79932,2.57764,1.20703,3.86377
					c0.7749,2.44678,1.61426,4.97998,2.49414,7.53027c0.63037,1.82715-0.33984,3.81982-2.16699,4.4502
					C227.68797,826.68878,227.30272,826.75079,226.9243,826.75079z M216.88084,792.92999
					c-1.55908,0-2.98096-1.04932-3.38721-2.62891c-1.01123-3.93066-1.98291-7.91455-2.88867-11.8418
					c-0.43457-1.8833,0.73975-3.7627,2.62354-4.19727c1.88525-0.43604,3.7627,0.74023,4.19727,2.62402
					c0.89258,3.87012,1.85059,7.79688,2.84717,11.6709c0.48145,1.87207-0.64551,3.78027-2.51758,4.26172
					C217.46288,792.89386,217.16942,792.92999,216.88084,792.92999z M209.35789,758.45538
					c-1.66357,0-3.13867-1.18994-3.44141-2.88477c-0.71533-4.00146-1.38281-8.05127-1.9834-12.03711
					c-0.28809-1.91113,1.02783-3.69434,2.93945-3.98242c1.91113-0.28613,3.69434,1.02783,3.98242,2.93945
					c0.59131,3.92285,1.24805,7.90918,1.95215,11.84863c0.34033,1.90283-0.92676,3.72119-2.82959,4.06104
					C209.76952,758.43732,209.562,758.45538,209.35789,758.45538z M204.56541,723.49493c-1.78516,0-3.30957-1.35938-3.47998-3.17236
					c-0.3833-4.0752-0.70459-8.17236-0.95459-12.17822c-0.12061-1.9292,1.3457-3.59082,3.2749-3.71143
					c1.93994-0.12793,3.59131,1.34619,3.71143,3.2749c0.24561,3.93311,0.56104,7.95703,0.93701,11.95947
					c0.18115,1.92432-1.23242,3.63135-3.15674,3.81201C204.78612,723.49005,204.67528,723.49493,204.56541,723.49493z
					 M202.92381,688.25275c-0.00439,0-0.0083,0-0.01221,0c-1.93311-0.00684-3.49463-1.57861-3.48828-3.51172
					c0.01367-4.104,0.10449-8.21826,0.26953-12.22852c0.07959-1.93164,1.70996-3.42578,3.64111-3.35303
					c1.93115,0.07959,3.43262,1.70947,3.35303,3.64111c-0.16162,3.92236-0.25,7.94775-0.26367,11.96387
					C206.41698,686.69366,204.85106,688.25275,202.92381,688.25275z M205.06639,653.04865
					c-0.14258,0-0.28711-0.00879-0.43262-0.02686c-1.91846-0.23633-3.28223-1.9834-3.04541-3.90186
					c0.50439-4.09375,1.10596-8.17627,1.78809-12.13428c0.32812-1.90479,2.13965-3.18311,4.04346-2.85498
					c1.90479,0.32812,3.18311,2.13867,2.85498,4.04346c-0.66309,3.84814-1.24854,7.81934-1.73926,11.80225
					C208.31737,651.74933,206.80858,653.04865,205.06639,653.04865z M562.39551,652.8587
					c-1.61133,0-3.06104-1.11914-3.41699-2.75781c-0.41016-1.88916,0.78857-3.75293,2.67773-4.16309
					c3.66309-0.79492,7.20068-2.05518,10.51562-3.74463c1.72119-0.87988,3.83008-0.19385,4.70752,1.52881
					c0.87793,1.72217,0.19336,3.83008-1.52881,4.70752c-3.85059,1.96289-7.9585,3.42627-12.20898,4.34912
					C562.89111,652.83282,562.6416,652.8587,562.39551,652.8587z M539.44678,652.2215c-0.30664,0-0.61865-0.04053-0.92871-0.12598
					c-4.18945-1.15039-8.21191-2.82471-11.95605-4.97754c-1.67578-0.96338-2.25293-3.10303-1.28955-4.77881
					c0.96387-1.67627,3.10205-2.25439,4.77881-1.28955c3.22998,1.85693,6.70215,3.30225,10.32031,4.2959
					c1.86377,0.51172,2.95996,2.4375,2.44824,4.30176C542.39307,651.20099,540.98389,652.2215,539.44678,652.2215z
					 M591.10791,633.75714c-0.75586,0-1.51709-0.24365-2.1582-0.74658c-1.521-1.19336-1.78613-3.39355-0.59277-4.91406
					c2.49854-3.18408,5.03711-6.38281,7.54492-9.50732c1.20996-1.50732,3.4126-1.74902,4.92041-0.53857
					c1.50732,1.20996,1.74854,3.41309,0.53857,4.92041c-2.4917,3.10449-5.01416,6.28271-7.49707,9.44678
					C593.17334,633.29767,592.146,633.75714,591.10791,633.75714z M511.79932,631.64142c-1.16553,0-2.30469-0.58154-2.96924-1.64209
					c-0.63818-1.01855-1.25244-2.07764-1.82568-3.14795c-1.36816-2.55469-2.76318-5.10156-4.14697-7.56934
					c-0.94531-1.68604-0.34521-3.81934,1.34082-4.76465c1.68457-0.94678,3.81885-0.3457,4.76465,1.34082
					c1.40625,2.50732,2.82324,5.09424,4.2124,7.68848c0.49854,0.93115,1.03223,1.85156,1.58643,2.73584
					c1.02637,1.63818,0.53076,3.79785-1.10742,4.82422C513.07666,631.46857,512.43408,631.64142,511.79932,631.64142z
					 M211.9287,618.47345c-0.31641,0-0.6377-0.04346-0.95654-0.13379c-1.85986-0.52734-2.93994-2.4624-2.4126-4.32178
					c1.13281-3.99463,2.38672-7.94385,3.72754-11.7373c0.64307-1.82275,2.64453-2.77734,4.46582-2.13428
					c1.82275,0.64453,2.77783,2.64404,2.13379,4.46631c-1.2915,3.65527-2.5,7.46191-3.59277,11.31494
					C214.85692,617.46759,213.45409,618.47345,211.9287,618.47345z M613.34521,606.35773c-0.79443,0-1.59375-0.26904-2.25-0.82031
					c-1.47949-1.24365-1.6709-3.45166-0.42773-4.93164c2.60596-3.10107,5.25391-6.2124,7.87061-9.24756
					c1.26172-1.46484,3.47266-1.62842,4.93604-0.36572c1.46436,1.26221,1.62793,3.47217,0.36572,4.93604
					c-2.59717,3.01318-5.22607,6.10205-7.81299,9.18066C615.33447,605.93292,614.34326,606.35773,613.34521,606.35773z
					 M494.00049,601.16779c-1.15384,0-2.2832-0.56982-2.95117-1.61328c-2.18262-3.40967-4.41357-6.76611-6.63086-9.97607
					c-1.09912-1.59033-0.7002-3.77051,0.89014-4.86914c1.59131-1.09717,3.77051-0.69922,4.86865,0.89062
					c2.26416,3.27686,4.54102,6.70215,6.76758,10.18018c1.04199,1.62842,0.56738,3.79297-1.06055,4.83496
					C495.2998,600.98907,494.646,601.16779,494.00049,601.16779z M224.76073,585.68341c-0.54395,0-1.09521-0.12744-1.61133-0.39551
					c-1.71533-0.8916-2.38281-3.00439-1.49121-4.71973c1.92139-3.69727,3.99219-7.31055,6.15479-10.73975
					c1.03027-1.63574,3.19189-2.12549,4.82715-1.09375c1.63525,1.03076,2.125,3.19238,1.09375,4.82715
					c-2.05908,3.26562-4.03223,6.70947-5.86475,10.23486C227.24608,584.99591,226.02489,585.68341,224.76073,585.68341z
					 M636.55273,579.78107c-0.84033,0-1.68311-0.30078-2.35352-0.91064c-1.43018-1.30029-1.53564-3.51367-0.23535-4.94385
					c2.74219-3.01562,5.51514-6.01953,8.24121-8.92822c1.32227-1.41016,3.53711-1.48193,4.94727-0.16016
					s1.48193,3.53711,0.16016,4.94727c-2.70215,2.88281-5.45068,5.86035-8.16943,8.8501
					C638.45264,579.39532,637.50439,579.78107,636.55273,579.78107z M473.39453,572.52521
					c-1.01514,0-2.02197-0.43945-2.71387-1.2876c-2.55859-3.13525-5.16943-6.18066-7.76123-9.05029
					c-1.29541-1.43457-1.18262-3.64795,0.25195-4.94336c1.43408-1.29541,3.64697-1.18311,4.94336,0.25195
					c2.66943,2.95605,5.35791,6.09082,7.98975,9.31641c1.22217,1.49805,0.99854,3.70264-0.49902,4.9248
					C474.95557,572.2674,474.17236,572.52521,473.39453,572.52521z M244.76317,556.763c-0.84229,0-1.68652-0.30225-2.35791-0.91455
					c-1.42822-1.30225-1.5293-3.51611-0.22705-4.94434c2.7959-3.06494,5.76172-6.00928,8.81445-8.75146
					c1.4375-1.29053,3.65088-1.17432,4.94238,0.26465c1.29201,1.43799,1.17336,3.65088-0.26465,4.94238
					c-2.88086,2.58838-5.68018,5.36816-8.32031,8.26221C246.65916,556.37872,245.71288,556.763,244.76317,556.763z
					 M660.70459,554.05841c-0.82227,0-1.64795-0.28809-2.31299-0.875c-1.4502-1.27832-1.58936-3.48975-0.31104-4.93945
					c2.59619-2.94482,5.10449-6.02979,7.45508-9.16943c1.15967-1.54688,3.35303-1.8623,4.89941-0.7041
					c1.54736,1.1582,1.86279,3.35205,0.7041,4.89941c-2.46191,3.28857-5.08887,6.51953-7.80762,9.60352
					C662.63965,553.65753,661.67432,554.05841,660.70459,554.05841z M449.04248,547.04425
					c-0.81738,0-1.6377-0.28418-2.30176-0.86426c-3.03223-2.6499-6.12451-5.15479-9.19043-7.44482
					c-1.54834-1.15723-1.86621-3.3501-0.70947-4.89893c1.15771-1.54883,3.35059-1.86426,4.89893-0.70947
					c3.20801,2.39697,6.44043,5.01514,9.60742,7.78174c1.45508,1.27197,1.60449,3.48291,0.33252,4.93848
					C450.98779,546.63898,450.01758,547.04425,449.04248,547.04425z M271.94922,534.53693
					c-1.19141,0-2.35205-0.60791-3.00781-1.70508c-0.9917-1.65918-0.45068-3.80811,1.2085-4.7998
					c3.51709-2.10156,7.2041-4.06641,10.95947-5.83936c1.74609-0.82666,3.8335-0.07812,4.65918,1.6709
					c0.8252,1.74805,0.07715,3.83398-1.6709,4.65918c-3.5498,1.67578-7.03418,3.53271-10.35645,5.51807
					C273.17871,534.37677,272.56006,534.53693,271.94922,534.53693z M419.95752,527.24689c-0.52051,0-1.04834-0.1167-1.54639-0.3623
					c-3.55273-1.75342-7.16943-3.28906-10.75-4.56445c-1.8208-0.64844-2.77148-2.6499-2.12305-4.47119
					c0.64844-1.8208,2.65088-2.77344,4.47168-2.12256c3.83545,1.36572,7.7041,3.0083,11.49902,4.88086
					c1.73389,0.85547,2.44531,2.95459,1.58984,4.68799C422.48877,526.53009,421.24756,527.24689,419.95752,527.24689z
					 M680.75342,525.11798c-0.55469,0-1.11719-0.13184-1.64062-0.41064c-1.70703-0.90771-2.354-3.02686-1.44629-4.73389
					c1.84229-3.46289,3.56641-7.04443,5.125-10.64453c0.76807-1.77441,2.8291-2.58984,4.60205-1.82129
					c1.77441,0.76807,2.58984,2.82812,1.82178,4.60254c-1.63232,3.771-3.43896,7.52295-5.36914,11.15137
					C683.21729,524.44415,682.00586,525.11798,680.75342,525.11798z M304.30225,520.84943
					c-1.53418,0-2.94189-1.0166-3.37109-2.56738c-0.51562-1.86279,0.57666-3.79102,2.43945-4.30664
					c3.8916-1.07715,7.93945-2.02441,12.03125-2.81543c1.89697-0.36475,3.7334,0.87402,4.10059,2.77246
					c0.3667,1.89795-0.87451,3.7334-2.77246,4.10059c-3.91113,0.75586-7.77783,1.66064-11.49219,2.68848
					C304.92578,520.80792,304.61133,520.84943,304.30225,520.84943z M386.29395,517.39191
					c-0.15869,0-0.31934-0.01074-0.48096-0.0332c-4.00049-0.5498-7.99268-1.01367-11.86572-1.37939
					c-1.92432-0.18164-3.33691-1.88867-3.15527-3.81348c0.18164-1.92383,1.88623-3.33789,3.81348-3.15527
					c3.9707,0.37451,8.0625,0.8501,12.16064,1.41357c1.91504,0.26318,3.25391,2.02881,2.99072,3.94385
					C389.51611,516.1214,388.01562,517.39191,386.29395,517.39191z M339.03711,515.25079
					c-1.83691,0-3.37891-1.43213-3.49023-3.29053c-0.11572-1.92969,1.35449-3.5874,3.28418-3.70312
					c4-0.23975,8.13525-0.36523,12.29004-0.37207c0.00195,0,0.00439,0,0.00635,0c1.93018,0,3.49658,1.56348,3.49951,3.49414
					c0.00293,1.93311-1.56104,3.50244-3.49414,3.50586c-4.01953,0.00635-8.01758,0.12744-11.88281,0.35938
					C339.17871,515.24884,339.10791,515.25079,339.03711,515.25079z M693.53125,492.31427
					c-0.29053,0-0.58496-0.03662-0.87891-0.1123c-1.87158-0.48438-2.99609-2.39404-2.51221-4.26514
					c0.98242-3.79736,1.82031-7.68066,2.49023-11.54297c0.33105-1.90479,2.14697-3.17627,4.04688-2.85059
					c1.90479,0.33057,3.18066,2.14258,2.85059,4.04688c-0.70264,4.04883-1.58105,8.11963-2.61035,12.09961
					C696.50928,491.2674,695.08838,492.31427,693.53125,492.31427z M698.23291,457.43048c-0.01758,0-0.03467,0-0.05225-0.00049
					c-1.93311-0.02832-3.47656-1.61816-3.44824-3.55078c0.00977-0.68262,0.01465-1.36572,0.01465-2.04834
					c0-3.2417-0.11182-6.52246-0.33252-9.75098c-0.13184-1.92871,1.32422-3.59863,3.25293-3.73047
					c1.92725-0.14551,3.59912,1.32422,3.73047,3.25293c0.23145,3.38672,0.34912,6.82812,0.34912,10.22852
					c0,0.7168-0.00488,1.43408-0.01562,2.15088C701.70361,455.89679,700.14209,457.43048,698.23291,457.43048z M694.79492,422.37384
					c-1.69092,0-3.17822-1.22803-3.45215-2.95117c-0.63721-4.01025-1.25098-8.0542-1.82373-12.01953
					c-0.27637-1.91309,1.05029-3.68799,2.96338-3.96436c1.9209-0.2749,3.68848,1.05029,3.96436,2.96338
					c0.56836,3.93311,1.17676,7.94434,1.80908,11.92188c0.30322,1.90918-0.99805,3.70264-2.90723,4.00586
					C695.1626,422.35968,694.97754,422.37384,694.79492,422.37384z M689.97998,387.40509
					c-1.75244,0-3.26562-1.31396-3.47217-3.09717c-0.4668-4.02588-0.90771-8.09326-1.31006-12.08936
					c-0.19385-1.92334,1.2085-3.63965,3.13184-3.83301c1.92285-0.18799,3.63965,1.2085,3.83301,3.13184
					c0.39893,3.96143,0.83545,7.99316,1.29834,11.98389c0.22266,1.92041-1.15332,3.65723-3.07324,3.87988
					C690.25049,387.39728,690.11475,387.40509,689.97998,387.40509z M686.70557,352.26202
					c-1.82227,0-3.35938-1.41064-3.48828-3.25635c-0.28223-4.04639-0.53369-8.13135-0.74658-12.14209
					c-0.10254-1.93018,1.37939-3.57812,3.30957-3.68066c1.91211-0.10596,3.57812,1.37891,3.68066,3.30957
					c0.21094,3.97217,0.45996,8.01807,0.73975,12.02588c0.13428,1.92822-1.31934,3.60059-3.24805,3.73535
					C686.86963,352.25909,686.78711,352.26202,686.70557,352.26202z M685.11816,317.00519
					c-1.90137,0-3.46045-1.52197-3.49805-3.43164c-0.0791-4.04932-0.12207-8.1416-0.12744-12.1626
					c-0.00244-1.93311,1.5625-3.50244,3.49512-3.50488c0.00146,0,0.00342,0,0.00488,0c1.93115,0,3.49756,1.56396,3.5,3.49512
					c0.00537,3.97949,0.04785,8.02832,0.12646,12.03564c0.0376,1.93262-1.49854,3.52979-3.43115,3.56787
					C685.16504,317.0047,685.1416,317.00519,685.11816,317.00519z M685.38965,281.72394c-0.04248,0-0.08447-0.00098-0.12744-0.00244
					c-1.93164-0.06885-3.44189-1.69043-3.37256-3.62256c0.14453-4.05371,0.33203-8.14355,0.55713-12.15576
					c0.10889-1.93018,1.75439-3.3877,3.69092-3.29834c1.92969,0.1084,3.40674,1.76074,3.29834,3.69092
					c-0.22266,3.96484-0.4082,8.00635-0.55127,12.01318C688.81738,280.2381,687.26465,281.72394,685.38965,281.72394z
					 M687.71533,246.52179c-0.11377,0-0.229-0.00537-0.34473-0.0166c-1.92383-0.18799-3.33105-1.8999-3.14307-3.82373
					c0.39502-4.04395,0.83887-8.1167,1.32031-12.10449c0.23096-1.91943,1.98438-3.28467,3.89355-3.05566
					c1.91943,0.23145,3.2876,1.97461,3.05566,3.89404c-0.47461,3.93506-0.91309,7.95459-1.30273,11.94678
					C691.01758,245.17023,689.49512,246.52179,687.71533,246.52179z M692.33057,211.54767
					c-0.19238,0-0.3877-0.01562-0.58398-0.04883c-1.90625-0.32031-3.19189-2.12549-2.87158-4.03174
					c0.67383-4.00879,1.40527-8.04346,2.17383-11.9917c0.37012-1.89746,2.20898-3.1333,4.10449-2.7666
					c1.89746,0.36963,3.13574,2.20703,2.7666,4.10449c-0.75732,3.88916-1.47803,7.86426-2.1416,11.81396
					C695.49072,210.33722,694.00879,211.54767,692.33057,211.54767z M699.51074,177.01251
					c-0.28125,0-0.56689-0.03418-0.85254-0.10547c-1.875-0.46973-3.01465-2.37012-2.54492-4.24561
					c0.9917-3.96289,2.04688-7.93018,3.13574-11.79053c0.52441-1.86084,2.45752-2.94092,4.31885-2.41846
					c1.86035,0.5249,2.94287,2.4585,2.41846,4.31885c-1.07031,3.79395-2.10742,7.69336-3.08252,11.58984
					C702.50537,175.95099,701.07861,177.01251,699.51074,177.01251z M709.57568,143.20831
					c-0.38281,0-0.77148-0.06348-1.15332-0.19629c-1.8252-0.63721-2.78809-2.63281-2.15137-4.45801
					c1.34766-3.86084,2.76807-7.71826,4.22266-11.46436c0.69922-1.80127,2.72559-2.6958,4.5293-1.99609
					c1.80176,0.69922,2.6958,2.72705,1.99609,4.5293c-1.42529,3.67139-2.81787,7.45264-4.13867,11.23779
					C712.37646,142.30402,711.02295,143.20831,709.57568,143.20831z M722.88965,110.55206
					c-0.50098,0-1.00977-0.10791-1.49268-0.33643c-1.74756-0.82568-2.49512-2.91162-1.66943-4.65967
					c1.74951-3.70361,3.58203-7.39062,5.4458-10.95801c0.89502-1.71338,3.00928-2.37646,4.72314-1.48096
					c1.71289,0.89502,2.37598,3.00977,1.48096,4.72314c-1.8208,3.48438-3.61084,7.08643-5.3208,10.70605
					C725.45947,109.81085,724.20166,110.55206,722.88965,110.55206z"/>
			</g>
			<g>
				<path class="st2" d="M739.72559,79.81866c-0.64014,0-1.28809-0.17578-1.86914-0.54346
					c-1.63281-1.03418-2.11865-3.19629-1.08447-4.82959c1.08594-1.71484,2.2002-3.43018,3.31104-5.09863
					c1.07178-1.6084,3.24414-2.04297,4.85352-0.97266c1.6084,1.07178,2.04395,3.24463,0.97266,4.85352
					c-1.08154,1.62305-2.16602,3.29297-3.22314,4.96289C742.02002,79.24249,740.88525,79.81866,739.72559,79.81866z"/>
			</g>
		</g>
		<g>
			<g>
				<path class="st2" d="M1379.23047,1553.58875c-1.24512,0-2.4502-0.66602-3.08301-1.83789l-2.85059-5.28027
					c-0.91797-1.70117-0.2832-3.82422,1.41699-4.74316c1.70312-0.91699,3.8252-0.28418,4.74316,1.41699l2.85059,5.28027
					c0.91797,1.70117,0.2832,3.82422-1.41699,4.74316C1380.36133,1553.453,1379.79199,1553.58875,1379.23047,1553.58875z"/>
			</g>
			<g>
				<path class="st2" d="M1365.41309,1527.9989c-1.24414,0-2.4502-0.66602-3.08301-1.83789l-5.72168-10.59668
					c-0.91797-1.70117-0.28418-3.82422,1.41699-4.74316c1.70312-0.91797,3.8252-0.2832,4.74316,1.41699l5.72168,10.59668
					c0.91797,1.70117,0.28418,3.82422-1.41699,4.74316C1366.54395,1527.86316,1365.97461,1527.9989,1365.41309,1527.9989z
					 M1348.72461,1497.09265c-1.24414,0-2.44922-0.66602-3.08301-1.83789l-5.72168-10.59668
					c-0.91797-1.70117-0.2832-3.82422,1.41699-4.74316c1.70312-0.91797,3.8252-0.28418,4.74316,1.41699l5.72168,10.59668
					c0.91797,1.70117,0.28418,3.82422-1.41699,4.74316C1349.85547,1496.95691,1349.28613,1497.09265,1348.72461,1497.09265z
					 M1332.03613,1466.1864c-1.24463,0-2.44971-0.66602-3.08252-1.83789l-5.72168-10.5957
					c-0.91846-1.70117-0.28418-3.82422,1.4165-4.74316c1.70117-0.91797,3.82373-0.2832,4.74268,1.41699l5.72217,10.5957
					c0.91797,1.70117,0.28418,3.82422-1.41699,4.74316C1333.16797,1466.05066,1332.59766,1466.1864,1332.03613,1466.1864z
					 M1315.34766,1435.28015c-1.24463,0-2.44971-0.66602-3.08252-1.83789l-5.72168-10.5957
					c-0.91846-1.70117-0.28418-3.82422,1.4165-4.74316c1.70117-0.91699,3.82422-0.2832,4.74268,1.41699l5.72168,10.5957
					c0.91846,1.70117,0.28418,3.82422-1.4165,4.74316C1316.479,1435.14441,1315.90918,1435.28015,1315.34766,1435.28015z
					 M1298.65918,1404.37488c-1.24463,0-2.44971-0.66602-3.08252-1.83789l-5.72168-10.59668
					c-0.91846-1.70117-0.28418-3.82422,1.41699-4.74316c1.69873-0.91797,3.82373-0.28418,4.74219,1.41699l5.72168,10.59668
					c0.91846,1.70117,0.28418,3.82422-1.4165,4.74316C1299.79053,1404.23914,1299.2207,1404.37488,1298.65918,1404.37488z
					 M1282.17627,1373.36218c-1.31641,0-2.57715-0.74609-3.17236-2.0166c-1.7373-3.71094-3.33594-7.54199-4.75098-11.38672
					c-0.66748-1.81445,0.26172-3.82617,2.07568-4.49316c1.81445-0.6709,3.82617,0.26172,4.49365,2.0752
					c1.34619,3.6582,2.86768,7.30469,4.52148,10.83594c0.81934,1.75098,0.06494,3.83398-1.68555,4.6543
					C1283.17822,1373.25574,1282.67334,1373.36218,1282.17627,1373.36218z M1271.35986,1340.03699
					c-1.64551,0-3.11182-1.16602-3.43359-2.8418c-0.77197-4.02344-1.37988-8.12988-1.80664-12.2041
					c-0.20166-1.92188,1.19385-3.64355,3.11621-3.8457c1.9209-0.19629,3.64453,1.19434,3.8457,3.11719
					c0.40625,3.87695,0.98486,7.78418,1.71973,11.61426c0.36426,1.89844-0.87988,3.73242-2.77783,4.09668
					C1271.80029,1340.01648,1271.57861,1340.03699,1271.35986,1340.03699z M1449.15625,1310.77039
					c-0.05176,0-0.10352-0.00098-0.15527-0.00293c-4.06543-0.17773-8.1709-0.4707-12.20312-0.87207
					c-1.92285-0.19043-3.32715-1.90527-3.13574-3.8291s1.9043-3.32227,3.8291-3.13574
					c3.90234,0.3877,7.87793,0.67188,11.81445,0.84277c1.93164,0.08496,3.42871,1.71777,3.34473,3.64941
					C1452.56836,1309.30164,1451.01855,1310.77039,1449.15625,1310.77039z M1472.21777,1310.58972
					c-1.83984,0-3.38281-1.43555-3.49121-3.29688c-0.1123-1.92969,1.36035-3.58496,3.29004-3.69727
					c3.90723-0.22754,7.88477-0.56152,11.82324-0.99121c1.91797-0.20898,3.64844,1.17773,3.85938,3.09961
					c0.20996,1.92188-1.17773,3.64941-3.09961,3.85938c-4.05469,0.44238-8.15137,0.78613-12.17578,1.02051
					C1472.35547,1310.58777,1472.28613,1310.58972,1472.21777,1310.58972z M1414.35254,1306.38464
					c-0.24121,0-0.48438-0.02539-0.72949-0.07715c-3.98438-0.84375-7.9873-1.8125-11.89746-2.87891
					c-1.86523-0.50879-2.96484-2.43262-2.45605-4.29785s2.42871-2.96387,4.29785-2.45605
					c3.78125,1.03125,7.65332,1.96875,11.50684,2.78516c1.89062,0.40039,3.09863,2.25781,2.69824,4.14941
					C1417.42383,1305.25574,1415.9707,1306.38464,1414.35254,1306.38464z M1507.01367,1306.03113
					c-1.63184,0-3.0918-1.14746-3.42676-2.80859c-0.38281-1.89453,0.84375-3.74121,2.73828-4.12305
					c3.8418-0.77539,7.74316-1.65332,11.59668-2.60938c1.875-0.45996,3.77441,0.67871,4.24023,2.55469
					c0.46484,1.87598-0.67871,3.77441-2.55469,4.24023c-3.95215,0.97949-7.95508,1.88086-11.89746,2.67578
					C1507.47656,1306.00867,1507.24316,1306.03113,1507.01367,1306.03113z M1269.07764,1305.07898
					c-0.06885,0-0.13867-0.00195-0.2085-0.00586c-1.92969-0.11426-3.40186-1.77051-3.28857-3.7002
					c0.24121-4.09082,0.66113-8.21973,1.24805-12.27246c0.27734-1.91211,2.05078-3.23145,3.96582-2.96191
					c1.91309,0.27734,3.23926,2.05273,2.96191,3.96582c-0.55908,3.85645-0.9585,7.78613-1.1875,11.68066
					C1272.45898,1303.64441,1270.91699,1305.07898,1269.07764,1305.07898z M1540.9248,1296.96179
					c-1.4668,0-2.83398-0.92969-3.32129-2.39941c-0.6084-1.83496,0.38574-3.81543,2.2207-4.42383
					c3.5752-1.18555,7.21191-2.46484,10.80859-3.80176l0.42188-0.1582c1.80762-0.67871,3.82715,0.24023,4.50488,2.05176
					c0.67676,1.81055-0.24121,3.82715-2.05176,4.50488l-0.44141,0.16406c-3.66895,1.36426-7.38477,2.67188-11.03906,3.88379
					C1541.66211,1296.90417,1541.29004,1296.96179,1540.9248,1296.96179z M1380.76074,1296.26062
					c-0.42871,0-0.86328-0.0791-1.28613-0.24609c-3.76562-1.48926-7.5498-3.11133-11.24902-4.82324
					c-1.75391-0.8125-2.51855-2.89258-1.70703-4.64648c0.8125-1.75488,2.89453-2.5166,4.64648-1.70703
					c3.5791,1.65625,7.24121,3.22656,10.88379,4.66699c1.79785,0.71094,2.67871,2.74414,1.96777,4.54199
					C1383.47266,1295.42175,1382.15527,1296.26062,1380.76074,1296.26062z M1572.59277,1282.19617
					c-1.10645,0-2.19531-0.52344-2.875-1.5c-1.10449-1.58691-0.71387-3.76758,0.87207-4.87207
					c3.11133-2.16699,6.1875-4.58203,9.1416-7.18066c1.4502-1.27637,3.66211-1.13477,4.93945,0.31641
					c1.27637,1.45117,1.13477,3.66309-0.31641,4.93945c-3.15234,2.77246-6.4375,5.35254-9.76465,7.66895
					C1573.98047,1281.99304,1573.2832,1282.19617,1572.59277,1282.19617z M1349.30078,1280.72253
					c-0.6123,0-1.23145-0.16113-1.79492-0.49805c-3.47559-2.08105-6.94824-4.28906-10.32129-6.5625
					c-1.60254-1.08105-2.02539-3.25684-0.94531-4.85938c1.08301-1.60254,3.25781-2.02344,4.85938-0.94531
					c3.26855,2.2041,6.63379,4.34473,10.00293,6.36133c1.6582,0.99219,2.19824,3.1416,1.20508,4.80078
					C1351.65137,1280.11511,1350.49023,1280.72253,1349.30078,1280.72253z M1277.83105,1271.59753
					c-0.73389,0-1.47363-0.22949-2.10498-0.70605c-1.54297-1.16406-1.85059-3.3584-0.68604-4.90137
					c2.66699-3.53613,5.92383-6.55762,9.68018-8.98047c1.62402-1.04688,3.79053-0.5791,4.83838,1.04395
					c1.04736,1.625,0.58008,3.79102-1.04443,4.83887c-3.0625,1.97559-5.71582,4.43555-7.88623,7.3125
					C1279.93994,1271.11707,1278.89209,1271.59753,1277.83105,1271.59753z M1320.1582,1261.17859
					c-0.50586,0-1.02002-0.11035-1.50684-0.34277c-3.26953-1.56348-6.75342-2.52051-10.35498-2.84766
					c-1.92529-0.17383-3.34424-1.87598-3.16992-3.80078c0.1748-1.92578,1.88232-3.34473,3.80176-3.16992
					c4.43262,0.40137,8.71924,1.58008,12.7417,3.50195c1.74414,0.83398,2.48193,2.92383,1.64844,4.66797
					C1322.71777,1260.44421,1321.46436,1261.17859,1320.1582,1261.17859z M1597.83105,1258.00476
					c-0.76074,0-1.52637-0.24609-2.16895-0.75488c-1.5166-1.19922-1.77344-3.40039-0.57422-4.91602
					c2.36426-2.99023,4.69727-6.18848,6.93164-9.50684c1.08105-1.60449,3.25586-2.02637,4.8584-0.94824
					c1.60352,1.08008,2.02734,3.25586,0.94824,4.8584c-2.33496,3.46582-4.77344,6.80957-7.24805,9.93848
					C1599.8877,1257.54968,1598.86426,1258.00476,1597.83105,1258.00476z M1616.58105,1228.38562
					c-0.53613,0-1.08105-0.12402-1.59082-0.38477c-1.7207-0.88086-2.40234-2.98926-1.52246-4.70996
					c1.75879-3.4375,3.48145-7.03613,5.12109-10.69629c0.79004-1.76562,2.86035-2.55371,4.625-1.76367
					s2.55371,2.86133,1.76367,4.625c-1.68945,3.77051-3.46484,7.47852-5.27734,11.02246
					C1619.08105,1227.68933,1617.85352,1228.38562,1616.58105,1228.38562z M1630.30762,1196.08289
					c-0.38574,0-0.77734-0.06445-1.16211-0.19922c-1.82324-0.64258-2.78125-2.64062-2.13965-4.46387
					c1.28809-3.6582,2.54883-7.46387,3.74609-11.31055c0.57422-1.8457,2.53516-2.87305,4.38281-2.30078
					c1.8457,0.5752,2.875,2.53711,2.30078,4.38281c-1.22363,3.92676-2.51074,7.81445-3.82617,11.55273
					C1633.10254,1195.1825,1631.75098,1196.08289,1630.30762,1196.08289z M1640.25781,1162.40808
					c-0.27637,0-0.55664-0.0332-0.83691-0.10156c-1.87695-0.46094-3.02539-2.35645-2.56543-4.2334
					c0.93164-3.7959,1.83398-7.71289,2.68262-11.6416c0.40723-1.8877,2.26855-3.0918,4.15918-2.68164
					c1.88965,0.40723,3.09082,2.27051,2.68262,4.16016c-0.86133,3.99121-1.7793,7.97266-2.72559,11.83105
					C1643.2627,1161.33777,1641.83203,1162.40808,1640.25781,1162.40808z M1647.28125,1127.99597
					c-0.19043,0-0.38379-0.01562-0.57812-0.04883c-1.90723-0.31641-3.19531-2.11914-2.87793-4.02637
					c0.64648-3.88574,1.26172-7.86426,1.8291-11.82617c0.27441-1.91309,2.05078-3.24512,3.96191-2.96777
					c1.91309,0.27441,3.24219,2.04785,2.96777,3.96191c-0.5752,4.0127-1.19922,8.04297-1.85449,11.98047
					C1650.44531,1126.7821,1648.96191,1127.99597,1647.28125,1127.99597z M1651.94238,1093.18054
					c-0.12012,0-0.24219-0.00586-0.36426-0.01855c-1.92285-0.19922-3.32031-1.91895-3.12109-3.8418
					c0.4043-3.9043,0.78125-7.91699,1.12012-11.92773c0.16309-1.92578,1.85156-3.36035,3.78223-3.19238
					c1.92578,0.16211,3.35547,1.85547,3.19238,3.78223c-0.34277,4.05371-0.72363,8.11133-1.13184,12.05859
					C1655.2334,1091.8407,1653.71387,1093.18054,1651.94238,1093.18054z M1654.61621,1058.15417
					c-0.05957,0-0.12012-0.00098-0.18066-0.00488c-1.92969-0.09766-3.41602-1.74219-3.31738-3.67285
					c0.2002-3.94434,0.37012-7.97363,0.50684-11.97461c0.06543-1.93164,1.68066-3.44043,3.61719-3.37891
					c1.93164,0.06641,3.44434,1.68555,3.37891,3.61719c-0.1377,4.04004-0.31055,8.10742-0.5127,12.0918
					C1658.01367,1056.70105,1656.46777,1058.15417,1654.61621,1058.15417z M1655.5625,1023.0379c-0.00488,0-0.00977,0-0.01465,0
					c-1.93359-0.00781-3.49316-1.58203-3.48535-3.51465c0.00488-1.13965,0.00781-2.28125,0.00684-3.42383
					c0-2.84766-0.01562-5.7041-0.0459-8.56836c-0.02051-1.93359,1.53027-3.5166,3.46289-3.53711c0.0127,0,0.02539,0,0.03809,0
					c1.91602,0,3.47852,1.54297,3.49902,3.46289c0.03027,2.88965,0.0459,5.76953,0.0459,8.63965
					c0.00098,1.15137-0.00195,2.30469-0.00684,3.45605C1659.05469,1021.48029,1657.48828,1023.0379,1655.5625,1023.0379z
					 M1654.96191,987.90704c-1.87207,0-3.42383-1.48145-3.49512-3.36719c-0.14941-3.94043-0.33008-7.97363-0.53613-11.9873
					c-0.09961-1.93066,1.38477-3.57617,3.31543-3.6748c1.93262-0.10352,3.5752,1.38477,3.6748,3.31543
					c0.20801,4.04492,0.38965,8.11035,0.54004,12.08105c0.07324,1.93164-1.43262,3.55762-3.36426,3.62988
					C1655.05078,987.90607,1655.00586,987.90704,1654.96191,987.90704z M1652.9375,952.82745
					c-1.81055,0-3.34473-1.39502-3.48535-3.23096c-0.30566-3.96094-0.64258-7.98438-1.00195-11.9585
					c-0.17383-1.92529,1.24609-3.62695,3.17188-3.80078c1.91406-0.1792,3.62598,1.24561,3.80078,3.1709
					c0.36133,4.00488,0.7002,8.05908,1.00781,12.05029c0.14941,1.92725-1.29297,3.61035-3.2207,3.75879
					C1653.11914,952.82404,1653.02832,952.82745,1652.9375,952.82745z M1649.57617,917.85089
					c-1.75391,0-3.26758-1.31641-3.47266-3.10107c-0.45312-3.95215-0.93945-7.96094-1.44434-11.91504
					c-0.24512-1.91748,1.11035-3.67041,3.02832-3.91504c1.90723-0.25244,3.66992,1.10986,3.91504,3.02832
					c0.50879,3.9834,0.99805,8.02148,1.45605,12.00293c0.21973,1.92041-1.1582,3.65625-3.07812,3.87646
					C1649.84473,917.84308,1649.70996,917.85089,1649.57617,917.85089z M1644.92773,883.02228
					c-1.7002,0-3.19238-1.2417-3.45508-2.9751c-0.60059-3.95166-1.23047-7.9292-1.87207-11.82275
					c-0.31445-1.90723,0.97656-3.7085,2.88379-4.02295c1.91016-0.31348,3.70898,0.97803,4.02246,2.88428
					c0.64648,3.92236,1.28125,7.92969,1.88574,11.91064c0.29102,1.91064-1.02344,3.69531-2.93457,3.98584
					C1645.28027,883.00909,1645.10254,883.02228,1644.92773,883.02228z M1639.03223,848.44464
					c-1.64941,0-3.11719-1.17041-3.43555-2.8501c-0.73535-3.88867-1.50977-7.84814-2.30176-11.76855
					c-0.38281-1.89453,0.84277-3.74072,2.7373-4.12354c1.90039-0.38428,3.74023,0.84277,4.12402,2.73779
					c0.79785,3.94824,1.57812,7.93604,2.31934,11.85352c0.3584,1.89941-0.88965,3.72998-2.78906,4.08936
					C1639.4668,848.42462,1639.24805,848.44464,1639.03223,848.44464z M1631.87793,814.06183
					c-1.59863,0-3.04102-1.10107-3.41016-2.7251c-0.87988-3.87305-1.80078-7.80713-2.73633-11.69385
					c-0.45312-1.87939,0.7041-3.76953,2.58301-4.22217c1.87695-0.45361,3.76953,0.70361,4.22168,2.5835
					c0.94336,3.91553,1.87109,7.87939,2.75781,11.78076c0.42871,1.88477-0.75195,3.76025-2.6377,4.18896
					C1632.39551,814.03302,1632.13477,814.06183,1631.87793,814.06183z M1623.44531,779.92657
					c-1.54688,0-2.96094-1.03223-3.37891-2.59717c-1.03906-3.88672-2.11035-7.78906-3.18262-11.59863
					c-0.52344-1.86035,0.55957-3.79346,2.4209-4.31738c1.85547-0.52197,3.79297,0.55957,4.31738,2.42041
					c1.08105,3.83936,2.15918,7.77148,3.20605,11.68799c0.5,1.86719-0.60938,3.78564-2.47656,4.28516
					C1624.04883,779.888,1623.74414,779.92657,1623.44531,779.92657z M1613.69629,746.10138
					c-1.49414,0-2.87695-0.96387-3.34277-2.46533c-1.18262-3.82031-2.4043-7.66748-3.62891-11.43408
					c-0.59766-1.83789,0.40723-3.81299,2.24512-4.41064c1.83789-0.59912,3.81348,0.40625,4.41113,2.24561
					c1.23535,3.79785,2.4668,7.67627,3.66016,11.52783c0.57129,1.84668-0.46191,3.80713-2.30859,4.37891
					C1614.3877,746.0506,1614.03906,746.10138,1613.69629,746.10138z M1602.61035,712.76202
					c-1.43848,0-2.78711-0.89404-3.29688-2.32715c-1.34277-3.77002-2.72461-7.56104-4.10742-11.26758
					c-0.67578-1.81104,0.24512-3.82666,2.05566-4.50244c1.81445-0.67578,3.82715,0.24512,4.50293,2.05615
					c1.39453,3.73877,2.78906,7.56299,4.14258,11.36572c0.64844,1.82129-0.30176,3.82324-2.12305,4.47168
					C1603.39648,712.69659,1603,712.76202,1602.61035,712.76202z M1590.09668,679.9339c-1.38086,0-2.68945-0.82275-3.24219-2.18066
					c-1.51172-3.71094-3.06348-7.43311-4.6123-11.06396c-0.75879-1.77783,0.06738-3.83398,1.84473-4.59277
					c1.77832-0.75781,3.83496,0.06787,4.59277,1.8457c1.56445,3.66602,3.13184,7.42432,4.65723,11.17041
					c0.72949,1.79004-0.13086,3.83252-1.9209,4.56152C1590.9834,679.8504,1590.53613,679.9339,1590.09668,679.9339z
					 M1576.06055,647.72833c-1.31836,0-2.58105-0.74902-3.1748-2.02295c-1.69434-3.63721-3.42969-7.27637-5.15625-10.81592
					c-0.84766-1.7373-0.12695-3.83252,1.61035-4.68018c1.73828-0.85059,3.83301-0.12598,4.68066,1.61084
					c1.74512,3.57715,3.49805,7.25391,5.21094,10.9292c0.81641,1.75195,0.05762,3.83447-1.69434,4.65039
					C1577.05859,647.62286,1576.55566,647.72833,1576.06055,647.72833z M1560.38379,616.29181
					c-1.25098,0-2.46094-0.67188-3.09082-1.85254c-1.88477-3.53223-3.81738-7.06689-5.74316-10.50635
					c-0.94434-1.68652-0.34277-3.81934,1.34375-4.76367s3.81934-0.34326,4.76367,1.34326
					c1.94922,3.48096,3.9043,7.05762,5.81152,10.63086c0.91016,1.70557,0.26562,3.82568-1.44043,4.73584
					C1561.50391,616.159,1560.93945,616.29181,1560.38379,616.29181z M1542.92383,585.81378
					c-1.1748,0-2.32324-0.59229-2.98438-1.66699c-2.10254-3.41895-4.25-6.82275-6.38281-10.11768
					c-1.0498-1.62305-0.58594-3.78955,1.03711-4.84033c1.61914-1.04932,3.78906-0.5874,4.83984,1.03662
					c2.16113,3.33984,4.33789,6.79004,6.46875,10.25439c1.0127,1.64648,0.49902,3.80225-1.14746,4.81494
					C1544.18262,585.6463,1543.5498,585.81378,1542.92383,585.81378z M1523.51562,556.54327
					c-1.09082,0-2.16602-0.50879-2.84863-1.46338c-2.3418-3.271-4.72363-6.50977-7.08105-9.62646
					c-1.16602-1.5415-0.8623-3.73633,0.67969-4.90283c1.54102-1.16699,3.7373-0.86133,4.90234,0.68018
					c2.39453,3.16504,4.81445,6.4541,7.19141,9.7749c1.12402,1.57227,0.7627,3.7583-0.80957,4.8833
					C1524.93262,556.33038,1524.2207,556.54327,1523.51562,556.54327z M1501.97754,528.81036
					c-0.99512,0-1.9834-0.42188-2.67578-1.24121c-2.58496-3.06006-5.22168-6.08789-7.83789-8.99902
					c-1.29199-1.43799-1.17383-3.65088,0.26367-4.94287c1.43848-1.29199,3.65039-1.17285,4.94336,0.26416
					c2.66309,2.96387,5.34766,6.0459,7.97852,9.16016c1.24707,1.47705,1.06152,3.68506-0.41504,4.93262
					C1503.57715,528.53937,1502.77539,528.81036,1501.97754,528.81036z M1478.12598,503.05206
					c-0.88477,0-1.77051-0.3335-2.45215-1.00195c-2.83984-2.78809-5.75-5.54541-8.64844-8.19531
					c-1.42578-1.3042-1.52539-3.51807-0.2207-4.94482c1.30566-1.42676,3.51953-1.5249,4.94434-0.22119
					c2.95898,2.70557,5.92969,5.52002,8.82812,8.36523c1.37988,1.354,1.40039,3.57031,0.04688,4.94971
					C1479.93848,502.70197,1479.03223,503.05206,1478.12598,503.05206z M1451.81641,479.83185
					c-0.75879,0-1.52246-0.24512-2.16504-0.75146c-3.125-2.46387-6.31738-4.87695-9.48828-7.17188
					c-1.56641-1.13379-1.91699-3.32178-0.7832-4.8877c1.13379-1.56494,3.32031-1.91699,4.88672-0.78271
					c3.24902,2.35107,6.51855,4.82227,9.71875,7.34521c1.51758,1.19678,1.77832,3.39746,0.58203,4.91553
					C1453.87598,479.37482,1452.85156,479.83185,1451.81641,479.83185z"/>
			</g>
			<g>
				<path class="st2" d="M1422.96777,459.82159c-0.61523,0-1.23828-0.16211-1.80371-0.50293
					c-1.69238-1.01953-3.40918-2.02832-5.10449-2.99805c-0.9873-0.56494-1.63867-1.57471-1.74609-2.70703
					c-0.18848-1.98535-0.40234-3.96143-0.63574-5.87354c-0.2334-1.91846,1.13281-3.66357,3.05078-3.89746
					c1.94043-0.23486,3.66406,1.13232,3.89844,3.05078c0.16992,1.39258,0.3291,2.81787,0.47656,4.25537
					c1.22656,0.71289,2.45703,1.44092,3.67383,2.1748c1.65527,0.99756,2.18848,3.14893,1.19141,4.8042
					C1425.31152,459.21808,1424.15332,459.82159,1422.96777,459.82159z"/>
			</g>
			<g>
				<path class="st2" d="M1413.19531,428.38947c-1.58887,0-3.02734-1.08984-3.40527-2.70361
					c-0.88672-3.79297-1.89648-7.58691-3-11.27637c-0.55371-1.85205,0.49902-3.80225,2.35059-4.35596
					c1.85547-0.55469,3.80176,0.49805,4.35645,2.3501c1.14355,3.8252,2.18945,7.75732,3.10938,11.6875
					c0.44043,1.88232-0.72852,3.76514-2.61133,4.20557C1413.72754,428.35919,1413.45898,428.38947,1413.19531,428.38947z
					 M1402.29395,395.54279c-1.3457,0-2.62793-0.77979-3.20508-2.09033c-1.56543-3.55469-3.26465-7.08447-5.05078-10.49121
					c-0.89746-1.71191-0.2373-3.82764,1.47461-4.7251c1.71094-0.896,3.82812-0.2373,4.72461,1.4751
					c1.85938,3.54688,3.62793,7.2207,5.25781,10.91992c0.7793,1.76855-0.02344,3.83447-1.79199,4.61377
					C1403.24414,395.44708,1402.76465,395.54279,1402.29395,395.54279z M1385.25781,365.42169
					c-1.09668,0-2.17676-0.51416-2.85938-1.47754c-2.23438-3.15527-4.6084-6.26758-7.05664-9.25098
					c-1.22559-1.49463-1.00879-3.69971,0.48633-4.92627c1.49316-1.22412,3.69824-1.0083,4.92578,0.48584
					c2.55176,3.11084,5.02734,6.35596,7.35742,9.64551c1.11719,1.57764,0.74414,3.76172-0.83398,4.87891
					C1386.66406,365.21222,1385.95703,365.42169,1385.25781,365.42169z M1362.43262,339.40363
					c-0.84961,0-1.70117-0.30762-2.375-0.92969c-2.85059-2.63525-5.81934-5.18408-8.82324-7.57617
					c-1.51172-1.2041-1.76172-3.40576-0.55762-4.91797c1.2041-1.51318,3.40625-1.7627,4.91895-0.55762
					c3.13672,2.49854,6.2373,5.16016,9.21387,7.91113c1.41895,1.31201,1.50586,3.52637,0.19434,4.9458
					C1364.31445,339.0257,1363.375,339.40363,1362.43262,339.40363z"/>
			</g>
			<g>
				<path class="st2" d="M1334.55273,318.88947c-0.57715,0-1.16211-0.14258-1.70117-0.44336
					c-3.13916-1.75-5.01562-2.57812-5.03418-2.58643c-1.76855-0.77686-2.5752-2.84033-1.7998-4.60938
					c0.77441-1.77002,2.83545-2.57666,4.60498-1.8042c0.08691,0.03809,2.16846,0.95215,5.63721,2.88574
					c1.68848,0.94141,2.29395,3.07275,1.35254,4.76123C1336.97266,318.242,1335.78027,318.88947,1334.55273,318.88947z"/>
			</g>
		</g>
		<g>
			<path class="st2" d="M1445.51855,447.20782c-1.23926,0-2.44043-0.65967-3.07617-1.82471
				c-0.9248-1.69727-0.2998-3.82324,1.39746-4.74854l86.4668-47.15039c1.69727-0.92432,3.82324-0.30029,4.74902,1.39697
				c0.9248,1.69727,0.2998,3.82324-1.39746,4.74854l-86.4668,47.15039
				C1446.65918,447.07013,1446.08496,447.20782,1445.51855,447.20782z"/>
		</g>
		<g>
			<path class="st2" d="M1441.98633,418.74738c-0.47266,0-0.95312-0.09668-1.41406-0.30029
				c-1.76758-0.78174-2.56641-2.84863-1.78516-4.61621l27.08789-61.24512c0.78223-1.76758,2.84863-2.56689,4.61719-1.78516
				c1.76758,0.78174,2.56641,2.84863,1.78516,4.61621l-27.08789,61.24512
				C1444.61133,417.96954,1443.3291,418.74738,1441.98633,418.74738z"/>
		</g>
		<g>
			<path class="st2" d="M893.61206,555.29199c23.88812,4.1203,138.65234,0.63354,163.92932-12.14801
				c2.36389-1.19525,5.1604,0.48492,5.37097,3.12537c2.29822,28.82483-3.68774,53.41595-3.68774,53.41595l-175.12878,2.5199
				l4.47607-43.05389C888.83136,556.65515,891.13892,554.86542,893.61206,555.29199z"/>
		</g>
		<g>
			<path class="st3" d="M698.37939,1060.66199c-1.75244,0-3.26465-1.3125-3.47217-3.0957
				c-11.16504-96.01666-5.58496-147.25787,48.04297-243.63239c0.93994-1.68994,3.07227-2.29639,4.76025-1.35693
				c1.68945,0.93994,2.29639,3.07129,1.35693,4.76025c-52.69678,94.70117-58.17969,145.05811-47.20703,239.42047
				c0.22314,1.91992-1.15234,3.65723-3.07227,3.88086C698.65088,1060.65417,698.51416,1060.66199,698.37939,1060.66199z"/>
		</g>
		<g>
			<path class="st3" d="M962.46729,623.26593c-8.12549,0-13.39307-0.37939-14.13135-0.43604
				c-1.92725-0.14795-3.36914-1.82959-3.22168-3.75684c0.14746-1.92676,1.83008-3.36768,3.75635-3.22266
				c0.64404,0.04785,65.0127,4.63477,104.96143-20.5127c1.63477-1.03125,3.79736-0.53906,4.82666,1.09717
				c1.02979,1.63623,0.53857,3.79688-1.09717,4.82666C1026.98389,620.51007,984.35986,623.26593,962.46729,623.26593z"/>
		</g>
		<g>
			<path class="st3" d="M1377.98047,974.10626c-1.69336,0-3.18164-1.23145-3.45312-2.95605l-8.31543-52.75049
				c-0.23047-1.46191,0.4834-2.91064,1.7832-3.61865c1.29883-0.70703,2.90332-0.521,4.00684,0.46484l15.875,14.19727
				c1.44141,1.28857,1.56445,3.50098,0.27539,4.94189c-1.28809,1.44092-3.50195,1.5625-4.94141,0.27588l-8.55566-7.65137
				l6.78613,43.05078c0.30176,1.90918-1.00293,3.70117-2.91211,4.00195
				C1378.34473,974.09161,1378.16113,974.10626,1377.98047,974.10626z"/>
		</g>
		<g>
			<path class="st3" d="M1158.00293,891.70685c-0.92383,0-1.8457-0.36328-2.53369-1.08496
				c-1.18555-1.24316-29.21094-30.76904-44.37305-58.11572c-0.9375-1.69092-0.32666-3.8208,1.36377-4.7583
				c1.69043-0.93652,3.8208-0.32666,4.7583,1.36377c14.7207,26.55078,43.0332,56.38184,43.31738,56.68018
				c1.3335,1.39893,1.28076,3.61475-0.11816,4.94824C1159.73975,891.38605,1158.87061,891.70685,1158.00293,891.70685z"/>
		</g>
		<g>
			<path class="st3" d="M1034.70947,1211.48035c-0.80957,0-1.31738-0.00391-1.47607-0.00586
				c-1.93311-0.02051-3.4834-1.60352-3.46289-3.53613c0.02002-1.93359,1.55859-3.47656,3.53613-3.46387
				c0.39209,0.01465,39.42236,0.32422,62.42578-6.81641c1.85059-0.57324,3.80762,0.45996,4.38037,2.30566
				s-0.45898,3.80664-2.30518,4.37988C1076.07617,1211.08875,1042.2627,1211.48035,1034.70947,1211.48035z"/>
		</g>
		<g>
			<path class="st3" d="M588.77393,1026.26746c-1.2417,0-2.44482-0.66309-3.0791-1.83105l-14.36328-26.45905
				c-0.92188-1.69922-0.29248-3.82324,1.40625-4.74609c1.69922-0.92383,3.82324-0.29297,4.74609,1.40625l14.36328,26.45898
				c0.92188,1.69922,0.29248,3.8233-1.40625,4.74615C589.91016,1026.13074,589.33789,1026.26746,588.77393,1026.26746z"/>
		</g>
		<g>
			<path class="st3" d="M1134.06396,857.43683c-1.93311,0-3.5-1.56689-3.5-3.5V840.3299c0-1.93311,1.56689-3.5,3.5-3.5
				s3.5,1.56689,3.5,3.5v13.60693C1137.56396,855.86993,1135.99707,857.43683,1134.06396,857.43683z"/>
		</g>
		<g>
			<path class="st3" d="M335.52734,761.30597c-0.36719,0-0.74072-0.05811-1.1084-0.18115
				c-1.61572-0.53906-2.57666-2.14258-2.36377-3.771c0.00146-0.14746-0.00244-0.34863-0.00537-0.59863
				c-0.2876-24.66211,13.23047-40.91357,38.06348-45.76025c1.89844-0.37451,3.73486,0.86719,4.10547,2.76465
				c0.37061,1.89697-0.86719,3.73535-2.76465,4.10547c-21.44629,4.18604-32.65186,17.60596-32.40479,38.80859
				c0.01221,1.05029,0.01855,1.57715-0.20264,2.23926C338.35742,760.37921,336.99219,761.30597,335.52734,761.30597z
				 M332.20459,756.70343c0,0.00049,0,0.00098-0.00049,0.00146C332.20459,756.70441,332.20459,756.70392,332.20459,756.70343z
				 M332.20703,756.69708c-0.00049,0.00146-0.00146,0.00293-0.00195,0.00488
				C332.20605,756.70001,332.20654,756.69855,332.20703,756.69708z"/>
		</g>
		<g>
			<path class="st3" d="M293.69385,710.27911c-1.63428,0-3.09521-1.15039-3.42822-2.81396
				c-0.37305-1.86621,0.81299-3.68262,2.65869-4.1001c1.95654-0.50488,35.38721-10.62158,57.46094-17.32275
				c1.8501-0.56152,3.8042,0.48291,4.36572,2.33252s-0.48291,3.8042-2.33252,4.36572
				c-17.02002,5.16699-56.74658,17.2124-58.03418,17.47021C294.15234,710.25714,293.92139,710.27911,293.69385,710.27911z"/>
		</g>
		<g>
			<path class="st3" d="M343.33447,692.89142c-1.81494,0-3.34961-1.40137-3.48633-3.24072l-3.38623-45.59277
				c-0.14355-1.92773,1.30322-3.60645,3.23096-3.74951c1.9248-0.14795,3.60645,1.30322,3.74951,3.23096l3.38623,45.59277
				c0.14355,1.92773-1.30322,3.60645-3.23096,3.74951C343.50928,692.88849,343.42188,692.89142,343.33447,692.89142z"/>
		</g>
		<g>
			<path class="st3" d="M317.63232,700.19904c-1.79492,0-3.32275-1.37207-3.48242-3.19336l-4.17773-47.52979
				c-0.16943-1.92578,1.25439-3.62402,3.17969-3.79297c1.93457-0.16895,3.62402,1.25439,3.79297,3.17969l4.17773,47.52979
				c0.16943,1.92578-1.25439,3.62402-3.17969,3.79297C317.83838,700.19464,317.73486,700.19904,317.63232,700.19904z"/>
		</g>
		<g>
			<path class="st3" d="M295.70947,706.75128c-1.76953,0-3.28906-1.33789-3.47656-3.13721l-4.78809-45.86133
				c-0.20068-1.92236,1.19482-3.64355,3.11768-3.84424c1.91016-0.20898,3.64355,1.19482,3.84424,3.11768l4.78809,45.86133
				c0.20068,1.92236-1.19482,3.64355-3.11768,3.84424C295.9541,706.74493,295.83105,706.75128,295.70947,706.75128z"/>
		</g>
		<g>
			<path class="st3" d="M1437.79395,681.64386c-1.58301,0-3.15918-0.20166-4.65332-0.62646
				c-4.13965-1.17725-7.20898-3.88867-8.83105-7.67969c-4.35254,1.27393-9.16309,0.68945-13.53027-1.76318
				c-3.13574-1.76025-5.61133-4.23633-7.02246-6.85791c-3.57227,0.97559-7.63574,0.62061-11.52637-1.09766
				c-5.05469-2.23193-8.55859-6.21924-9.14453-10.40576c-1.76758-12.62207,11.57617-62.625,13.10352-68.28516
				c0.50391-1.86621,2.42383-2.96924,4.29102-2.46729c1.86621,0.50342,2.9707,2.42432,2.4668,4.29053
				c-4.04688,14.99854-14.25781,56.00098-12.92969,65.49121c0.2041,1.45557,2.00098,3.63086,5.04102,4.97314
				c3.28809,1.45215,6.62109,1.37793,8.91895-0.19482c1.08496-0.7417,2.49023-0.81396,3.64258-0.18896
				c1.1543,0.62451,1.86133,1.8418,1.83301,3.15381c-0.02539,1.1665,1.6123,3.72168,4.75293,5.48486
				c1.7002,0.95459,6.12891,2.87158,10.52441,0.05859c1.01465-0.65039,2.29004-0.73145,3.37891-0.21826
				s1.83789,1.5498,1.98242,2.74512c0.40137,3.31055,2.07129,5.40576,4.96387,6.22852
				c3.80469,1.08154,8.48145-0.40186,10.12012-2.4502c1.20801-1.50977,3.41016-1.75391,4.91992-0.54736
				c1.50879,1.20752,1.75391,3.41016,0.54688,4.91943C1447.92188,679.60724,1442.82422,681.64386,1437.79395,681.64386z"/>
		</g>
		<g>
			<path class="st3" d="M1386.41309,641.48761c-1.39062,0-2.70703-0.83496-3.25293-2.20654
				c-7.12598-17.89795-22.15332-24.04639-22.30469-24.10645c-1.79199-0.7124-2.67578-2.74268-1.96875-4.53711
				c0.70605-1.79395,2.72754-2.68115,4.52246-1.98047c0.72949,0.28418,17.96191,7.20654,26.25488,28.03516
				c0.71484,1.7959-0.16113,3.83105-1.95703,4.54639C1387.28223,641.40753,1386.84375,641.48761,1386.41309,641.48761z"/>
		</g>
		<g>
			<path class="st3" d="M1405.95605,663.41046c-0.29883,0-0.60254-0.03857-0.90527-0.11963
				c-1.86719-0.49854-2.97656-2.41699-2.47852-4.28467l11.20703-41.95557c0.49805-1.86719,2.41211-2.98047,4.28516-2.47803
				c1.86719,0.49854,2.97656,2.41699,2.47852,4.28467l-11.20703,41.95557
				C1408.91797,662.37775,1407.50293,663.41046,1405.95605,663.41046z"/>
		</g>
		<g>
			<path class="st3" d="M1426.61621,671.97784c-0.44043,0-0.8877-0.0835-1.32031-0.25977
				c-1.79004-0.72949-2.64941-2.77197-1.91992-4.56201l14.86719-36.48242c0.73047-1.79004,2.77441-2.6499,4.5625-1.92041
				c1.79004,0.72949,2.64941,2.77197,1.91992,4.56201l-14.86719,36.48242
				C1429.30469,671.15509,1427.99707,671.97784,1426.61621,671.97784z"/>
		</g>
		<g>
			<path class="st3" d="M1047.6333,582.71173c-1.93311,0-3.5-1.56689-3.5-3.5v-15.49707c0-1.93311,1.56689-3.5,3.5-3.5
				s3.5,1.56689,3.5,3.5v15.49707C1051.1333,581.14484,1049.56641,582.71173,1047.6333,582.71173z"/>
		</g>
		<g>
			<path class="st3" d="M1028.16748,594.61798c-1.93311,0-3.5-1.56689-3.5-3.5v-25.51367c0-1.93311,1.56689-3.5,3.5-3.5
				s3.5,1.56689,3.5,3.5v25.51367C1031.66748,593.05109,1030.10059,594.61798,1028.16748,594.61798z"/>
		</g>
		<g>
			<path class="st3" d="M1007.00098,591.40509c-1.93311,0-3.5-1.56689-3.5-3.5v-9.54395c0-1.93311,1.56689-3.5,3.5-3.5
				s3.5,1.56689,3.5,3.5v9.54395C1010.50098,589.8382,1008.93408,591.40509,1007.00098,591.40509z"/>
		</g>
		<g>
			<path class="st2" d="M1165.81055,293.48615c-0.66943,0-1.34619-0.19189-1.94434-0.59229
				c-1.60596-1.07568-2.03613-3.25-0.96045-4.85596c33.39795-49.86572,8.44385-119.86328,8.18799-120.56445
				c-0.66309-1.81592,0.27148-3.8252,2.0874-4.48779c1.81592-0.66211,3.8252,0.27148,4.48779,2.0874
				c0.27393,0.75049,6.73438,18.66113,8.95459,43.27197c2.95752,32.78174-3.23242,61.68604-17.90137,83.58838
				C1168.04688,292.94122,1166.93896,293.48615,1165.81055,293.48615z"/>
		</g>
		<g>
			<path class="st3" d="M1160.34521,159.79181c-0.24854,0-0.50049-0.02686-0.75293-0.08203
				c-1.88818-0.41406-3.08301-2.28027-2.66943-4.16846c1.03027-4.7002,6.19434-20.84619,29.37891-31.26611
				c1.76318-0.79199,3.83496-0.00488,4.62695,1.75781c0.79248,1.7627,0.00537,3.83447-1.75781,4.62695
				c-20.72266,9.31396-24.80273,23.60938-25.41016,26.38037C1163.40186,158.67609,1161.95361,159.79181,1160.34521,159.79181z"/>
		</g>
		<g>
			<path class="st3" d="M1164.79004,158.76251c-1.30762,0-2.56201-0.73633-3.16211-1.99561
				c-0.39209-0.82324-9.48633-20.37061,1.18506-38.15576c0.99414-1.65723,3.14307-2.19531,4.80176-1.2002
				c1.65771,0.99414,2.19482,3.14404,1.2002,4.80176c-8.75977,14.59961-0.94775,31.37549-0.86768,31.54346
				c0.83154,1.74463,0.09082,3.8335-1.6543,4.66504C1165.80713,158.65265,1165.29443,158.76251,1164.79004,158.76251z"/>
		</g>
		<g>
			<path class="st3" d="M1166.88867,342.50812c-0.81738,0-1.6377-0.28467-2.30176-0.86426
				c-18.11035-15.82617-10.89697-34.17969-10.58105-34.95312c0.73096-1.78955,2.77246-2.64795,4.56348-1.91699
				c1.78467,0.729,2.64307,2.7627,1.92285,4.54834c-0.24951,0.63379-5.5249,14.61914,8.70117,27.05029
				c1.45557,1.27197,1.604,3.4834,0.33252,4.93896C1168.8335,342.10284,1167.86377,342.50812,1166.88867,342.50812z"/>
		</g>
		<g>
			<path class="st3" d="M974.02393,180.60968c-1.49316,0-2.87598-0.96289-3.3418-2.46338
				c-14.80078-47.68018,16.54346-84.44434,17.88525-85.98584c1.26855-1.4585,3.47998-1.6123,4.9375-0.34277
				c1.45752,1.26807,1.61182,3.47656,0.3457,4.93457l0,0c-0.30273,0.34961-30.10303,35.44238-16.48291,79.31885
				c0.57275,1.84619-0.45898,3.80713-2.30518,4.38037C974.71729,180.55841,974.36768,180.60968,974.02393,180.60968z"/>
		</g>
		<g>
			<path class="st3" d="M951.25,147.09552c-0.3667,0-0.74023-0.05811-1.10742-0.18066
				c-1.8335-0.61133-2.82471-2.59326-2.21338-4.42725c11.69629-35.08838,39.64941-47.69189,40.8335-48.21094
				c1.77002-0.77734,3.83447,0.0293,4.61084,1.79932c0.77588,1.76855-0.02783,3.83105-1.79443,4.60889
				c-0.33398,0.14893-26.34717,12.03027-37.00928,44.0166C954.08105,146.16779,952.71533,147.09552,951.25,147.09552z"/>
		</g>
		<g>
			<path class="st3" d="M992.1969,507.20728c0,0-29.12311,51.56403-92.55054,44.80676
				c0.46222-5.75153,2.11597-26.32867,2.11597-26.32867S949.61163,531.39771,992.1969,507.20728z"/>
		</g>
		<g>
			<path class="st3" d="M1443.50684,1159.3114c-1.23926,0-2.44043-0.65918-3.07617-1.82324
				c-0.9248-1.69434-0.30566-3.81543,1.38672-4.74316c0.67773-0.37305,16.85547-9.07422,38.3916-6.45312
				c1.91895,0.23438,3.28418,1.97949,3.05078,3.89844c-0.23438,1.91797-1.97559,3.28613-3.89844,3.05078
				c-19.21387-2.34863-34.03711,5.56348-34.18457,5.64453C1444.64551,1159.17371,1444.07227,1159.3114,1443.50684,1159.3114z"/>
		</g>
		<g>
			<path class="st3" d="M535.47949,1186.90613c-1.40576,0-2.73193-0.85254-3.26758-2.24219
				c-0.69482-1.80176,0.2002-3.82617,2.00195-4.52246c0.9248-0.35742,22.87646-8.68066,43.48926-2.34961
				c1.84814,0.56738,2.88574,2.52539,2.31836,4.37305c-0.56738,1.84863-2.5249,2.88867-4.37305,2.31836
				c-18.25586-5.60547-38.70898,2.11035-38.91357,2.18848C536.32178,1186.83093,535.89697,1186.90613,535.47949,1186.90613z"/>
		</g>
		<g>
			<path class="st2" d="M222.89305,454.01154c-1.10254,0-2.1875-0.51953-2.86865-1.49072
				c-1.10986-1.58301-0.72656-3.76562,0.85596-4.87549c22.87402-16.04102,46.90187-28.04785,71.41554-35.68555
				c1.84277-0.5791,3.80762,0.45459,4.38232,2.30029c0.5752,1.84521-0.45459,3.80762-2.30029,4.38232
				c-23.82178,7.42285-47.19777,19.10889-69.47804,34.73438C224.28856,453.80548,223.58739,454.01154,222.89305,454.01154z"/>
		</g>
		<g>
			<path class="st2" d="M1707.53223,1204.62195c-0.20801,0-0.41895-0.01855-0.63086-0.05762
				c-1.90137-0.34668-3.16309-2.16895-2.81641-4.07031c1.38574-7.6123,2.62891-15.6543,3.69238-23.9043
				c0.24805-1.91602,1.99902-3.26953,3.91992-3.02344c1.91699,0.24805,3.27051,2.00195,3.02344,3.91992
				c-1.08008,8.36816-2.34082,16.53125-3.74902,24.26172C1710.66406,1203.43738,1709.19043,1204.62195,1707.53223,1204.62195z"/>
		</g>
		<g>
			<path class="st2" d="M1504.37207,1379.64343c-9.38965,0-19.12109-0.35156-29.22363-1.05469
				c-1.92773-0.13379-3.38281-1.80566-3.24805-3.73438c0.13379-1.92969,1.80176-3.38965,3.73438-3.24805
				c117.86719,8.19141,187.03711-32.24316,217.65332-127.27148c0.5918-1.83984,2.56543-2.85254,4.4043-2.25781
				c1.83984,0.59277,2.85059,2.56445,2.25781,4.4043c-15.40234,47.80664-39.90137,81.69824-74.89844,103.60938
				C1593.41797,1369.89734,1553.74023,1379.64343,1504.37207,1379.64343z"/>
		</g>
		<g>
			<path class="st2" d="M558.53223,942.60773c-1.12793,0-2.20068-0.5459-2.86182-1.48584l-28.72607-40.82178
				c-1.1123-1.58057-0.73291-3.76416,0.84814-4.87646c1.58008-1.1123,3.76367-0.73291,4.87646,0.84814l24.69727,35.09619
				l13.7124-42.22656c0.59717-1.83838,2.56787-2.84229,4.41016-2.24805c1.83838,0.59717,2.84473,2.57178,2.24805,4.41016
				l-15.875,48.88525c-0.40967,1.26074-1.49658,2.18213-2.80762,2.37988
				C558.87988,942.59503,558.70557,942.60773,558.53223,942.60773z"/>
		</g>
		<g>
			<path class="st2" d="M1237.7583,671.97736c-1.13379,0-2.24561-0.5498-2.91943-1.56494
				c-36.95117-55.67725-77.03467-79.35303-94.15088-89.46338c-4.7251-2.79053-7.57666-4.4751-9.09766-5.99365
				c-1.36719-1.36621-1.36865-3.58252-0.00293-4.9502c1.36621-1.36719,3.58203-1.36816,4.9502-0.00293
				c0.89453,0.89404,4.05322,2.75977,7.70996,4.91992c17.53076,10.35449,58.58398,34.60352,96.42334,91.61914
				c1.06885,1.61084,0.62988,3.78271-0.98047,4.85156C1239.09473,671.78839,1238.42285,671.97736,1237.7583,671.97736z"/>
		</g>
		<g>
			<path class="st2" d="M708.71729,1256.99402c-1.00635,0-2.00488-0.43164-2.69727-1.2666
				c-9.04346-10.91602-9.43457-32.85254-9.77979-52.20605c-0.16748-9.39062-0.32568-18.25977-1.52979-23.84961
				c-0.40723-1.88965,0.79443-3.75195,2.68408-4.15918c1.89258-0.40234,3.75195,0.79492,4.15869,2.68457
				c1.34814,6.25684,1.51221,15.45801,1.68604,25.19922c0.30859,17.30371,0.69238,38.83789,8.17139,47.86426
				c1.23291,1.48926,1.02588,3.69531-0.4624,4.92871C710.29541,1256.73035,709.50391,1256.99402,708.71729,1256.99402z"/>
		</g>
		<g>
			<path class="st2" d="M169.59911,866.50909c-1.16699,0-2.30811-0.5835-2.97168-1.64648
				c-30.24414-48.41797-38.81738-103.77686-40.68359-141.69092c-2.27002-46.11621,4.05859-82.96973,8.15576-97.4751
				c0.52539-1.86035,2.46143-2.94189,4.31934-2.41699c1.86035,0.52539,2.94238,2.45947,2.41699,4.31934
				c-7.50879,26.58398-24.12988,144.13184,31.72803,233.55566c1.02441,1.63916,0.52539,3.79834-1.11377,4.82227
				C170.87303,866.33722,170.23241,866.50909,169.59911,866.50909z"/>
		</g>
		<g>
			<path class="st2" d="M727.71582,1591.71863c-0.33057,0-0.66602-0.04688-0.99902-0.14648
				c-16.56055-4.92285-33.28564-10.43945-49.71191-16.39648c-1.81689-0.65918-2.75586-2.66602-2.09717-4.4834
				c0.65918-1.81641,2.66797-2.75684,4.48389-2.09668c16.29688,5.91016,32.89062,11.38281,49.32031,16.26758
				c1.85254,0.55078,2.9082,2.49902,2.35742,4.35156C730.61719,1590.73523,729.22461,1591.71863,727.71582,1591.71863z"/>
		</g>
		<g>
			<path class="st2" d="M623.62402,1553.58875c-0.46777,0-0.94287-0.09473-1.39893-0.29395
				c-16.49365-7.20312-33.11426-15.0332-49.3999-23.27344c-1.7251-0.87305-2.41553-2.97852-1.54297-4.70312
				c0.87207-1.72461,2.979-2.41309,4.70312-1.54297c16.16797,8.18066,32.66797,15.9541,49.0415,23.10547
				c1.77148,0.77344,2.58008,2.83594,1.80664,4.60742C626.25879,1552.80359,624.97314,1553.58875,623.62402,1553.58875z"/>
		</g>
		<g>
			<path class="st2" d="M525.47266,1503.88757c-0.59424,0-1.19678-0.15234-1.74854-0.4707
				c-147.13818-85.08789-233.4668-184.82227-234.32178-185.82031c-1.25781-1.46777-1.0874-3.67676,0.37988-4.93457
				s3.67725-1.08887,4.93506,0.37988c0.84814,0.98828,86.46582,99.85938,232.51074,184.31445
				c1.67334,0.96777,2.24561,3.10938,1.27783,4.78223C527.85742,1503.26062,526.68164,1503.88757,525.47266,1503.88757z"/>
		</g>
		<g>
			<path class="st3" d="M1104.646,67.71954c-0.73926,0.00049-1.48389-0.23291-2.11768-0.71484
				c-42.10107-32.04785-93.67139-39.18213-129.52002-39.52295c-39.04932-0.37646-68.48535,7.01074-68.77734,7.08545
				c-1.87598,0.47754-3.77881-0.65332-4.25635-2.52539c-0.47803-1.87256,0.65186-3.77832,2.52393-4.25684
				c1.22461-0.31348,30.44336-7.67969,70.38135-7.30469c36.96674,0.32812,90.20312,7.7002,133.88867,40.9541
				c1.53809,1.1709,1.83545,3.36719,0.66504,4.90527C1106.74463,67.24396,1105.70117,67.71954,1104.646,67.71954z"/>
		</g>
		<g>
			<path class="st3" d="M842.26855,546.25323c-0.30859,0-0.62207-0.04102-0.93408-0.12744
				c-28.26416-7.80908-49.79346-27.39893-62.26025-56.65234c-9.3374-21.91113-10.31836-41.26514-10.35596-42.07861
				c-0.08789-1.93066,1.40576-3.56787,3.33691-3.65625c1.91504-0.07959,3.56641,1.4043,3.65576,3.33447l0,0
				c0.00879,0.18848,0.99121,19.08545,9.89014,39.85986c11.77832,27.49512,31.15674,45.14062,57.59766,52.4458
				c1.86328,0.51465,2.95605,2.44238,2.44141,4.30566C845.21143,545.23566,843.80322,546.25323,842.26855,546.25323z"/>
		</g>
		<g>
			<path class="st3" d="M1007.97559,495.62921c-1.03223,0-2.05469-0.4541-2.74561-1.32617
				c-1.20068-1.51514-0.9458-3.71631,0.56934-4.91699l7.32764-5.80713c1.51514-1.20166,3.7168-0.94629,4.91699,0.56934
				c1.20068,1.51514,0.9458,3.71631-0.56934,4.91699l-7.32764,5.80713
				C1009.50391,495.38214,1008.73682,495.62921,1007.97559,495.62921z"/>
		</g>
		<g>
			<path class="st3" d="M1096.29688,660.38556c-0.02295,0-0.0459,0-0.06885-0.00049
				c-1.93262-0.03711-3.46924-1.63428-3.43213-3.56689c0.55176-28.70557,9.03955-31.48096,11.62744-31.64746
				c1.93164-0.12158,3.59424,1.33838,3.71777,3.26758c0.11377,1.76221-1.09717,3.30371-2.77783,3.65186
				c-0.53564,0.35352-5.16846,4.04932-5.56836,24.86279C1099.7583,658.86261,1098.19824,660.38556,1096.29688,660.38556z
				 M1104.87891,632.15558c-0.00195,0.00049-0.00342,0.00049-0.00537,0.00049
				C1104.87549,632.15607,1104.87695,632.15607,1104.87891,632.15558z M1104.88477,632.15558c-0.00195,0-0.00342,0-0.00537,0
				C1104.88086,632.15558,1104.88281,632.15558,1104.88477,632.15558z M1104.88965,632.15509c-0.00146,0-0.00293,0-0.00488,0.00049
				C1104.88672,632.15509,1104.88818,632.15509,1104.88965,632.15509z M1104.89404,632.1546
				c-0.00098,0-0.00146,0.00049-0.00244,0.00049C1104.89258,632.15509,1104.89355,632.1546,1104.89404,632.1546z"/>
		</g>
		<g>
			<path class="st3" d="M1418.96191,742.84259c-11.82812,0-20.33887-5.03125-20.86914-5.35205
				c-1.65332-1.00098-2.18164-3.15332-1.18066-4.80664c1-1.64941,3.14648-2.17871,4.79785-1.18652l0,0
				c0.66504,0.39697,16.49316,9.61377,34.05273-0.06543c1.68945-0.93408,3.82031-0.31787,4.75488,1.375
				c0.93262,1.69287,0.31738,3.82178-1.37598,4.75488C1431.96289,741.51984,1425.02637,742.84259,1418.96191,742.84259z"/>
		</g>
		<g>
			<path class="st3" d="M335.79541,832.55743c-6.07178,0-10.33154-1.0835-10.73828-1.19092
				c-1.86865-0.49414-2.9834-2.40967-2.48926-4.27832c0.49365-1.86719,2.40723-2.98193,4.27246-2.49072
				c0.30371,0.07764,20.28467,5.00879,34.45361-8.93701c1.37695-1.35547,3.59326-1.33789,4.94971,0.03955
				c1.35596,1.37793,1.33789,3.59375-0.03955,4.94971C356.24658,830.44952,344.26074,832.55743,335.79541,832.55743z"/>
		</g>
		<g>
			<path class="st3" d="M756.08447,795.95343c-0.58887,0-1.18506-0.14844-1.73291-0.46143
				c-1.67822-0.95898-2.26172-3.09717-1.30273-4.77539l8.06348-14.11133c0.95898-1.6792,3.0957-2.26221,4.77539-1.30273
				c1.67822,0.95898,2.26172,3.09717,1.30273,4.77539l-8.06348,14.11133
				C758.48096,795.32013,757.2998,795.95343,756.08447,795.95343z"/>
		</g>
	</g>
</g>
</svg>
